<svg xmlns="http://www.w3.org/2000/svg" id="canvas" viewBox="259.678 365.877 1112.182 257.494"><path d="M 367.15,373.26 C 366.70 372.44, 366.04 371.22, 364.08 370.35 C 362.13 369.47, 360.66 368.83, 357.37 368.88 C 354.08 368.94, 352.08 369.03, 347.63 370.64 C 343.18 372.25, 340.72 373.54, 335.12 376.93 C 329.52 380.33, 326.15 382.49, 319.63 387.63 C 313.11 392.76, 309.22 395.95, 302.54 402.62 C 295.85 409.30, 292.08 413.38, 286.21 421.00 C 280.33 428.61, 277.38 433.05, 273.17 440.71 C 268.95 448.38, 267.22 452.45, 265.14 459.32 C 263.05 466.19, 262.51 469.61, 262.72 475.07 C 262.93 480.53, 263.67 483.11, 266.20 486.62 C 268.73 490.13, 270.87 491.38, 275.37 492.64 C 279.86 493.90, 282.83 493.81, 288.67 492.90 C 294.51 491.99, 298.03 490.86, 304.56 488.09 C 311.09 485.32, 314.83 483.23, 321.31 479.06 C 327.78 474.89, 331.26 472.12, 336.92 467.23 C 342.59 462.35, 345.37 459.47, 349.62 454.63 C 353.87 449.79, 355.72 447.19, 358.17 443.03 C 360.63 438.87, 361.53 436.78, 361.89 433.82 C 362.25 430.86, 361.50 429.64, 359.96 428.22 C 358.43 426.81, 356.83 426.57, 354.22 426.74 C 351.61 426.91, 349.63 427.57, 346.91 429.07 C 344.19 430.57, 342.50 431.92, 340.61 434.24 C 338.72 436.57, 337.86 438.20, 337.46 440.69 C 337.06 443.19, 337.24 444.66, 338.60 446.72 C 339.97 448.77, 341.26 449.84, 344.29 450.97 C 347.32 452.11, 349.43 452.19, 353.74 452.41 C 358.04 452.64, 360.74 452.48, 365.81 452.10 C 370.88 451.72, 373.88 451.26, 379.09 450.52 C 384.30 449.78, 387.44 449.04, 391.87 448.40 C 396.29 447.76, 398.64 447.49, 401.22 447.34 C 403.80 447.20, 404.57 446.85, 404.75 447.67 C 404.93 448.49, 404.19 449.03, 402.13 451.45 C 400.06 453.86, 398.22 455.87, 394.42 459.73 C 390.62 463.60, 387.79 466.22, 383.12 470.77 C 378.46 475.32, 375.50 477.98, 371.08 482.50 C 366.65 487.02, 364.29 489.36, 361.00 493.35 C 357.72 497.34, 356.13 499.24, 354.64 502.44 C 353.15 505.65, 352.94 507.17, 353.56 509.37 C 354.18 511.58, 355.21 512.58, 357.73 513.46 C 360.26 514.35, 362.14 514.33, 366.19 513.79 C 370.25 513.25, 372.81 512.53, 378.03 510.78 C 383.25 509.03, 386.32 507.75, 392.29 505.02 C 398.26 502.29, 401.63 500.57, 407.88 497.15 C 414.13 493.73, 417.55 491.73, 423.53 487.92 C 429.51 484.10, 432.63 481.96, 437.78 478.06 C 442.94 474.16, 445.45 472.04, 449.31 468.41 C 453.18 464.78, 454.89 463.07, 457.11 459.90 C 459.33 456.73, 460.11 455.09, 460.43 452.55 C 460.74 450.00, 460.24 448.72, 458.70 447.18 C 457.15 445.63, 455.62 444.81, 452.70 444.83 C 449.78 444.84, 447.76 445.59, 444.10 447.24 C 440.45 448.89, 438.22 450.28, 434.41 453.09 C 430.59 455.89, 428.33 457.80, 425.02 461.26 C 421.72 464.73, 420.03 466.85, 417.87 470.41 C 415.72 473.96, 414.73 475.84, 414.25 479.03 C 413.76 482.21, 414.04 483.94, 415.45 486.35 C 416.86 488.75, 418.21 489.94, 421.30 491.06 C 424.39 492.17, 426.53 492.22, 430.88 491.92 C 435.23 491.63, 437.78 491.04, 443.05 489.59 C 448.32 488.15, 451.37 487.03, 457.23 484.71 C 463.08 482.39, 466.45 480.79, 472.31 477.97 C 478.18 475.16, 481.30 473.38, 486.55 470.66 C 491.80 467.93, 494.54 466.45, 498.55 464.36 C 502.57 462.27, 504.60 461.35, 506.63 460.21 C 508.66 459.06, 508.94 458.50, 508.70 458.64 C 508.46 458.79, 507.29 459.27, 505.42 460.93 C 503.55 462.60, 502.00 464.28, 499.34 466.96 C 496.68 469.64, 494.70 471.58, 492.13 474.32 C 489.56 477.07, 487.86 478.53, 486.48 480.68 C 485.10 482.84, 484.79 483.95, 485.24 485.10 C 485.68 486.24, 486.50 486.72, 488.70 486.40 C 490.90 486.08, 492.55 485.20, 496.23 483.52 C 499.91 481.84, 502.32 480.30, 507.09 478.01 C 511.87 475.72, 514.89 474.21, 520.10 472.06 C 525.30 469.90, 528.53 468.65, 533.11 467.24 C 537.69 465.83, 540.05 465.46, 543.02 465.00 C 545.99 464.53, 546.91 464.49, 547.97 464.93 C 549.03 465.36, 548.78 465.84, 548.33 467.18 C 547.87 468.51, 546.79 469.55, 545.68 471.60 C 544.58 473.64, 543.59 475.04, 542.79 477.39 C 541.98 479.74, 541.54 481.19, 541.65 483.34 C 541.75 485.49, 541.98 486.66, 543.31 488.14 C 544.64 489.61, 545.68 490.34, 548.31 490.71 C 550.93 491.08, 552.68 490.82, 556.43 489.97 C 560.18 489.12, 562.45 488.26, 567.06 486.44 C 571.67 484.62, 574.40 483.37, 579.48 480.85 C 584.56 478.33, 587.51 476.76, 592.46 473.85 C 597.42 470.94, 600.04 469.23, 604.25 466.30 C 608.47 463.37, 610.60 461.82, 613.53 459.20 C 616.46 456.58, 617.79 455.39, 618.92 453.21 C 620.04 451.02, 619.94 449.76, 619.18 448.28 C 618.42 446.80, 617.41 446.09, 615.12 445.80 C 612.83 445.52, 610.98 445.80, 607.74 446.87 C 604.51 447.94, 602.48 448.99, 598.95 451.14 C 595.41 453.29, 593.37 454.81, 590.08 457.63 C 586.79 460.45, 584.97 462.16, 582.50 465.23 C 580.03 468.30, 578.77 469.99, 577.73 473.00 C 576.69 476.00, 576.55 477.70, 577.29 480.24 C 578.02 482.79, 578.92 484.16, 581.42 485.73 C 583.92 487.30, 585.80 487.77, 589.79 488.09 C 593.79 488.40, 596.24 488.11, 601.39 487.32 C 606.53 486.53, 609.63 485.72, 615.50 484.13 C 621.38 482.55, 624.78 481.44, 630.77 479.40 C 636.76 477.36, 640.03 476.00, 645.45 473.92 C 650.88 471.83, 653.67 470.63, 657.90 468.98 C 662.13 467.33, 664.26 466.65, 666.60 465.65 C 668.94 464.65, 669.49 464.07, 669.59 463.97 C 669.70 463.87, 668.79 464.14, 667.13 465.15 C 665.47 466.17, 663.89 467.17, 661.30 469.04 C 658.71 470.92, 656.86 472.46, 654.18 474.52 C 651.50 476.58, 649.72 477.70, 647.93 479.35 C 646.13 481.00, 645.51 481.93, 645.21 482.76 C 644.90 483.60, 645.18 483.86, 646.40 483.52 C 647.62 483.18, 648.73 482.65, 651.31 481.05 C 653.89 479.45, 655.53 477.88, 659.30 475.53 C 663.06 473.17, 665.52 471.65, 670.14 469.27 C 674.76 466.89, 677.50 465.64, 682.41 463.63 C 687.33 461.63, 689.99 460.68, 694.71 459.24 C 699.43 457.80, 701.78 457.22, 706.02 456.42 C 710.25 455.63, 712.21 455.49, 715.88 455.27 C 719.55 455.06, 721.25 455.20, 724.36 455.35 C 727.47 455.49, 728.85 455.73, 731.44 456.00 C 734.04 456.27, 735.16 456.48, 737.33 456.70 C 739.49 456.91, 740.49 457.09, 742.26 457.06 C 744.04 457.02, 744.97 457.01, 746.21 456.53 C 747.45 456.04, 748.10 455.55, 748.48 454.64 C 748.86 453.72, 748.90 452.89, 748.12 451.94 C 747.34 450.99, 746.56 450.33, 744.60 449.90 C 742.64 449.47, 741.22 449.25, 738.31 449.79 C 735.40 450.33, 733.62 451.11, 730.04 452.60 C 726.46 454.09, 724.26 455.04, 720.41 457.22 C 716.56 459.41, 714.33 460.87, 710.80 463.53 C 707.27 466.19, 705.43 467.79, 702.76 470.54 C 700.09 473.29, 698.74 474.69, 697.47 477.29 C 696.20 479.89, 696.03 481.39, 696.43 483.53 C 696.83 485.68, 697.56 486.76, 699.47 488.01 C 701.38 489.26, 702.86 489.76, 705.96 489.79 C 709.06 489.83, 711.02 489.32, 714.97 488.19 C 718.93 487.06, 721.27 486.10, 725.74 484.14 C 730.20 482.18, 732.82 480.77, 737.29 478.40 C 741.76 476.02, 744.53 474.42, 748.09 472.28 C 751.65 470.13, 753.44 468.95, 755.09 467.67 C 756.74 466.39, 756.72 465.83, 756.34 465.88 C 755.95 465.92, 754.83 466.36, 753.15 467.91 C 751.48 469.46, 749.68 471.01, 747.97 473.62 C 746.25 476.24, 745.15 478.23, 744.58 480.99 C 744.00 483.76, 743.99 485.41, 745.11 487.45 C 746.23 489.48, 747.25 490.58, 750.17 491.16 C 753.09 491.75, 755.08 491.50, 759.73 490.37 C 764.38 489.24, 767.18 488.24, 773.44 485.52 C 779.70 482.80, 783.44 480.93, 791.05 476.77 C 798.65 472.61, 803.06 469.99, 811.48 464.70 C 819.89 459.41, 824.61 456.24, 833.11 450.33 C 841.61 444.42, 846.23 441.11, 853.97 435.15 C 861.72 429.19, 865.68 425.95, 871.84 420.51 C 878.01 415.07, 880.92 412.34, 884.81 407.96 C 888.71 403.58, 890.35 401.64, 891.31 398.61 C 892.27 395.57, 891.72 393.94, 889.61 392.79 C 887.49 391.64, 885.37 391.65, 880.74 392.87 C 876.12 394.09, 872.82 395.47, 866.47 398.88 C 860.12 402.29, 856.04 404.75, 849.01 409.93 C 841.98 415.11, 837.84 418.44, 831.32 424.78 C 824.80 431.12, 821.35 434.88, 816.40 441.63 C 811.45 448.39, 809.26 452.10, 806.57 458.55 C 803.87 464.99, 803.04 468.28, 802.93 473.86 C 802.82 479.44, 803.45 482.17, 806.04 486.45 C 808.62 490.73, 810.90 492.55, 815.87 495.25 C 820.84 497.94, 824.17 498.80, 830.90 499.92 C 837.63 501.05, 842.35 500.86, 849.52 500.87 C 856.69 500.88, 860.92 500.45, 866.73 499.97 C 872.54 499.50, 876.24 499.04, 878.58 498.48 C 880.92 497.93, 880.83 497.21, 878.44 497.21 C 876.04 497.20, 872.40 498.04, 866.61 498.46 C 860.83 498.87, 856.61 499.31, 849.52 499.29 C 842.43 499.27, 837.74 499.47, 831.16 498.38 C 824.58 497.29, 821.39 496.39, 816.63 493.84 C 811.88 491.29, 809.84 489.62, 807.39 485.63 C 804.94 481.63, 804.31 479.20, 804.38 473.88 C 804.45 468.56, 805.16 465.35, 807.76 459.04 C 810.35 452.73, 812.48 449.02, 817.36 442.34 C 822.24 435.65, 825.66 431.90, 832.15 425.64 C 838.64 419.37, 842.78 416.07, 849.80 411.01 C 856.82 405.96, 860.95 403.60, 867.25 400.35 C 873.54 397.11, 876.93 396.02, 881.27 394.79 C 885.61 393.56, 887.28 393.55, 888.94 394.19 C 890.60 394.83, 890.62 395.43, 889.58 397.99 C 888.54 400.55, 887.42 402.67, 883.72 407.01 C 880.02 411.34, 877.15 414.18, 871.08 419.65 C 865.00 425.12, 861.05 428.36, 853.34 434.33 C 845.64 440.30, 841.02 443.61, 832.53 449.49 C 824.04 455.38, 819.32 458.54, 810.90 463.77 C 802.48 469.00, 798.05 471.59, 790.43 475.63 C 782.81 479.67, 779.03 481.47, 772.80 483.98 C 766.56 486.50, 763.68 487.30, 759.25 488.19 C 754.82 489.07, 753.07 488.76, 750.65 488.41 C 748.23 488.06, 747.65 487.71, 747.14 486.44 C 746.64 485.18, 747.18 484.16, 748.11 482.09 C 749.03 480.01, 750.25 478.52, 751.79 476.08 C 753.32 473.63, 754.74 471.91, 755.77 469.88 C 756.79 467.84, 757.26 466.73, 756.89 465.89 C 756.53 465.05, 755.96 464.84, 753.94 465.68 C 751.92 466.52, 750.32 467.95, 746.78 470.10 C 743.23 472.25, 740.62 474.05, 736.23 476.43 C 731.84 478.80, 729.21 480.17, 724.82 481.99 C 720.43 483.80, 718.04 484.61, 714.27 485.51 C 710.49 486.40, 708.66 486.40, 705.95 486.46 C 703.24 486.52, 702.17 486.47, 700.71 485.82 C 699.25 485.16, 698.78 484.64, 698.65 483.20 C 698.51 481.76, 698.83 480.78, 700.03 478.61 C 701.23 476.44, 702.20 474.96, 704.65 472.34 C 707.10 469.72, 708.88 468.06, 712.28 465.49 C 715.68 462.92, 717.89 461.49, 721.66 459.49 C 725.42 457.48, 727.64 456.60, 731.11 455.47 C 734.57 454.34, 736.38 454.22, 738.99 453.83 C 741.60 453.44, 742.61 453.52, 744.18 453.50 C 745.74 453.48, 746.21 453.70, 746.80 453.75 C 747.40 453.80, 747.41 453.73, 747.16 453.76 C 746.92 453.78, 746.55 453.82, 745.57 453.88 C 744.59 453.93, 743.86 454.07, 742.27 454.02 C 740.68 453.98, 739.74 453.88, 737.63 453.66 C 735.52 453.45, 734.37 453.15, 731.73 452.93 C 729.08 452.72, 727.63 452.60, 724.42 452.59 C 721.22 452.59, 719.46 452.57, 715.70 452.92 C 711.94 453.27, 709.92 453.47, 705.61 454.36 C 701.30 455.25, 698.92 455.88, 694.14 457.37 C 689.35 458.86, 686.67 459.82, 681.68 461.81 C 676.68 463.79, 673.93 465.05, 669.17 467.30 C 664.41 469.55, 661.84 470.92, 657.86 473.06 C 653.88 475.20, 651.80 476.21, 649.28 478.01 C 646.76 479.81, 645.95 480.91, 645.26 482.06 C 644.58 483.21, 644.87 483.72, 645.83 483.76 C 646.79 483.79, 647.93 483.50, 650.06 482.26 C 652.20 481.03, 653.77 479.61, 656.50 477.58 C 659.22 475.55, 661.22 474.22, 663.71 472.13 C 666.20 470.03, 667.70 468.81, 668.95 467.09 C 670.21 465.38, 670.61 464.30, 669.98 463.54 C 669.35 462.78, 668.36 462.61, 665.79 463.31 C 663.21 464.02, 661.31 465.27, 657.11 467.06 C 652.92 468.86, 650.19 470.14, 644.82 472.29 C 639.44 474.44, 636.18 475.78, 630.22 477.79 C 624.27 479.80, 620.87 480.88, 615.04 482.36 C 609.21 483.84, 606.09 484.56, 601.09 485.19 C 596.09 485.81, 593.67 485.87, 590.03 485.50 C 586.39 485.12, 584.95 484.49, 582.88 483.31 C 580.81 482.13, 580.17 481.45, 579.67 479.58 C 579.18 477.71, 579.42 476.51, 580.40 473.97 C 581.37 471.42, 582.27 469.73, 584.54 466.86 C 586.81 463.99, 588.58 462.25, 591.75 459.61 C 594.92 456.97, 596.99 455.54, 600.41 453.65 C 603.83 451.75, 605.91 451.15, 608.85 450.13 C 611.78 449.11, 613.29 448.78, 615.08 448.55 C 616.88 448.32, 617.44 448.29, 617.80 448.99 C 618.16 449.68, 618.05 450.30, 616.88 452.00 C 615.72 453.71, 614.73 454.95, 611.98 457.49 C 609.23 460.03, 607.21 461.76, 603.12 464.71 C 599.03 467.66, 596.42 469.37, 591.52 472.25 C 586.62 475.12, 583.67 476.68, 578.61 479.08 C 573.56 481.48, 570.80 482.66, 566.25 484.26 C 561.69 485.87, 559.36 486.43, 555.83 487.10 C 552.31 487.76, 550.78 487.71, 548.62 487.59 C 546.46 487.48, 545.83 487.35, 545.04 486.53 C 544.25 485.72, 544.36 485.05, 544.68 483.52 C 544.99 481.99, 545.71 480.95, 546.62 478.88 C 547.53 476.80, 548.44 475.44, 549.23 473.15 C 550.02 470.86, 550.68 469.36, 550.59 467.43 C 550.49 465.49, 550.34 464.45, 548.76 463.46 C 547.18 462.47, 545.95 462.14, 542.69 462.49 C 539.43 462.84, 537.14 463.68, 532.46 465.21 C 527.79 466.75, 524.59 468.04, 519.32 470.17 C 514.05 472.30, 510.97 473.74, 506.11 475.87 C 501.25 478.01, 498.65 479.23, 495.03 480.85 C 491.41 482.47, 489.78 483.15, 488.01 483.97 C 486.23 484.78, 485.98 485.19, 486.15 484.92 C 486.33 484.65, 487.20 484.27, 488.88 482.62 C 490.57 480.97, 491.99 479.31, 494.58 476.67 C 497.17 474.03, 499.20 472.14, 501.83 469.40 C 504.47 466.67, 506.26 465.16, 507.76 462.99 C 509.26 460.82, 509.73 459.52, 509.32 458.55 C 508.91 457.59, 508.07 457.36, 505.72 458.16 C 503.37 458.95, 501.57 460.34, 497.58 462.54 C 493.58 464.73, 490.95 466.35, 485.75 469.14 C 480.56 471.93, 477.44 473.70, 471.60 476.49 C 465.77 479.28, 462.40 480.85, 456.59 483.08 C 450.78 485.31, 447.71 486.35, 442.54 487.63 C 437.37 488.92, 434.81 489.33, 430.75 489.50 C 426.68 489.66, 424.85 489.32, 422.21 488.44 C 419.58 487.56, 418.64 486.89, 417.57 485.10 C 416.49 483.30, 416.37 482.14, 416.84 479.45 C 417.32 476.76, 417.96 474.96, 419.93 471.64 C 421.90 468.32, 423.51 466.17, 426.69 462.86 C 429.88 459.56, 432.14 457.70, 435.85 455.10 C 439.56 452.50, 441.86 451.31, 445.26 449.87 C 448.66 448.43, 450.43 448.14, 452.84 447.90 C 455.26 447.67, 456.25 447.82, 457.32 448.68 C 458.39 449.54, 458.61 450.20, 458.21 452.20 C 457.82 454.20, 457.36 455.69, 455.34 458.68 C 453.32 461.67, 451.81 463.53, 448.12 467.16 C 444.42 470.79, 441.94 472.94, 436.86 476.85 C 431.79 480.76, 428.69 482.90, 422.75 486.70 C 416.81 490.50, 413.39 492.48, 407.16 495.83 C 400.93 499.19, 397.56 500.88, 391.60 503.47 C 385.65 506.06, 382.54 507.24, 377.39 508.79 C 372.25 510.34, 369.66 510.76, 365.87 511.22 C 362.07 511.68, 360.52 511.56, 358.42 511.10 C 356.32 510.64, 355.71 510.45, 355.35 508.91 C 355.00 507.37, 355.24 506.29, 356.66 503.41 C 358.08 500.53, 359.32 498.46, 362.45 494.52 C 365.58 490.58, 367.91 488.18, 372.31 483.70 C 376.70 479.22, 379.68 476.60, 384.42 472.12 C 389.16 467.64, 392.05 465.14, 396.00 461.32 C 399.94 457.50, 402.17 455.83, 404.16 453.03 C 406.15 450.22, 406.54 448.95, 405.96 447.29 C 405.38 445.64, 404.15 445.00, 401.26 444.77 C 398.37 444.53, 396.01 445.39, 391.52 446.12 C 387.02 446.86, 383.96 447.69, 378.79 448.44 C 373.62 449.19, 370.64 449.60, 365.67 449.87 C 360.69 450.14, 357.99 450.15, 353.92 449.79 C 349.86 449.43, 347.98 448.98, 345.34 448.06 C 342.70 447.15, 341.74 446.58, 340.73 445.23 C 339.71 443.88, 339.70 443.02, 340.24 441.32 C 340.79 439.63, 341.73 438.52, 343.45 436.74 C 345.18 434.96, 346.63 433.84, 348.87 432.42 C 351.12 430.99, 352.70 430.21, 354.69 429.63 C 356.68 429.06, 357.83 428.78, 358.81 429.55 C 359.80 430.32, 360.06 430.97, 359.61 433.48 C 359.17 436.00, 358.82 438.10, 356.60 442.13 C 354.37 446.16, 352.60 448.84, 348.49 453.65 C 344.37 458.46, 341.61 461.34, 336.02 466.19 C 330.43 471.03, 326.96 473.78, 320.55 477.88 C 314.14 481.98, 310.39 484.01, 303.97 486.68 C 297.54 489.34, 294.04 490.37, 288.41 491.21 C 282.79 492.06, 280.01 492.03, 275.84 490.92 C 271.67 489.80, 269.90 488.81, 267.57 485.63 C 265.24 482.44, 264.44 480.19, 264.19 475.00 C 263.94 469.81, 264.35 466.43, 266.34 459.68 C 268.33 452.93, 270.01 448.86, 274.15 441.25 C 278.30 433.65, 281.23 429.23, 287.07 421.66 C 292.92 414.10, 296.68 410.04, 303.36 403.45 C 310.03 396.85, 313.93 393.70, 320.46 388.69 C 326.98 383.68, 330.40 381.56, 335.98 378.39 C 341.55 375.22, 344.07 374.08, 348.35 372.82 C 352.63 371.57, 354.42 372.05, 357.37 372.11 C 360.32 372.16, 361.31 372.63, 363.11 373.09 C 364.91 373.56, 365.57 374.39, 366.38 374.42 C 367.19 374.45, 367.61 374.07, 367.15 373.26" style="stroke: black; fill: black;"/><path d="M 1013.85,405.75 C 1013.24 406.24, 1012.99 406.67, 1011.93 408.63 C 1010.87 410.59, 1010.56 411.88, 1008.53 415.55 C 1006.51 419.21, 1005.17 421.77, 1001.81 426.94 C 998.45 432.12, 996.27 435.32, 991.74 441.44 C 987.21 447.56, 984.37 451.13, 979.15 457.54 C 973.93 463.95, 970.90 467.44, 965.64 473.49 C 960.37 479.54, 957.44 482.71, 952.82 487.80 C 948.20 492.89, 945.85 495.35, 942.54 498.94 C 939.22 502.53, 937.65 503.78, 936.26 505.74 C 934.87 507.71, 934.81 508.55, 935.59 508.77 C 936.36 509.00, 937.45 508.71, 940.14 506.86 C 942.83 505.02, 944.51 503.07, 949.02 499.54 C 953.52 496.02, 956.41 493.72, 962.67 489.23 C 968.93 484.74, 972.75 482.03, 980.32 477.09 C 987.88 472.16, 992.26 469.43, 1000.48 464.56 C 1008.70 459.70, 1013.27 457.20, 1021.44 452.76 C 1029.60 448.33, 1033.81 446.18, 1041.30 442.40 C 1048.79 438.61, 1052.50 436.86, 1058.89 433.84 C 1065.28 430.82, 1068.28 429.45, 1073.23 427.30 C 1078.18 425.14, 1080.45 424.39, 1083.66 423.07 C 1086.88 421.74, 1087.81 421.45, 1089.30 420.66 C 1090.79 419.88, 1090.86 419.68, 1091.11 419.15 C 1091.35 418.61, 1090.92 418.43, 1090.51 417.98 C 1090.10 417.52, 1089.63 416.98, 1089.05 416.87 C 1088.48 416.76, 1087.96 416.89, 1087.63 417.44 C 1087.30 417.98, 1087.16 418.99, 1087.40 419.60 C 1087.64 420.20, 1088.25 420.50, 1088.84 420.46 C 1089.44 420.43, 1090.02 419.78, 1090.38 419.40 C 1090.75 419.01, 1091.06 418.65, 1090.69 418.54 C 1090.31 418.42, 1090.11 418.33, 1088.53 418.83 C 1086.95 419.34, 1086.00 419.66, 1082.81 421.06 C 1079.61 422.46, 1077.46 423.52, 1072.57 425.84 C 1067.67 428.17, 1064.69 429.57, 1058.33 432.68 C 1051.98 435.79, 1048.27 437.56, 1040.78 441.39 C 1033.30 445.21, 1029.10 447.37, 1020.92 451.82 C 1012.75 456.26, 1008.17 458.76, 999.92 463.61 C 991.67 468.46, 987.28 471.19, 979.65 476.06 C 972.03 480.94, 968.17 483.62, 961.79 487.98 C 955.41 492.34, 952.42 494.52, 947.76 497.87 C 943.11 501.23, 940.99 502.67, 938.53 504.75 C 936.07 506.84, 935.62 507.86, 935.47 508.31 C 935.32 508.77, 936.10 508.67, 937.78 507.03 C 939.45 505.40, 940.64 503.79, 943.86 500.13 C 947.08 496.48, 949.32 493.90, 953.87 488.74 C 958.42 483.58, 961.35 480.41, 966.61 474.33 C 971.87 468.26, 974.90 464.77, 980.16 458.37 C 985.43 451.97, 988.29 448.41, 992.93 442.34 C 997.58 436.27, 999.82 433.11, 1003.40 428.01 C 1006.97 422.92, 1008.60 420.50, 1010.80 416.86 C 1013.01 413.21, 1013.59 411.93, 1014.43 409.79 C 1015.26 407.66, 1015.09 406.99, 1014.98 406.18 C 1014.86 405.37, 1014.46 405.26, 1013.85 405.75" style="stroke: black; fill: black;"/><path d="M 1019.48,470.00 C 1018.71 470.42, 1017.84 471.14, 1016.88 472.81 C 1015.92 474.48, 1015.31 475.74, 1014.69 478.34 C 1014.06 480.93, 1013.79 482.74, 1013.74 485.81 C 1013.68 488.88, 1013.91 490.65, 1014.41 493.69 C 1014.92 496.73, 1015.22 498.28, 1016.27 501.00 C 1017.31 503.72, 1017.93 505.09, 1019.65 507.29 C 1021.37 509.49, 1022.37 510.59, 1024.89 511.99 C 1027.40 513.40, 1028.90 513.99, 1032.21 514.31 C 1035.52 514.62, 1037.41 514.44, 1041.44 513.57 C 1045.47 512.69, 1047.67 511.97, 1052.36 509.91 C 1057.06 507.86, 1059.65 506.47, 1064.91 503.29 C 1070.17 500.11, 1073.08 498.09, 1078.66 494.02 C 1084.23 489.95, 1087.22 487.61, 1092.80 482.94 C 1098.37 478.26, 1101.34 475.56, 1106.54 470.66 C 1111.74 465.76, 1114.28 463.13, 1118.80 458.43 C 1123.32 453.74, 1125.47 451.37, 1129.12 447.19 C 1132.78 443.01, 1134.46 440.92, 1137.08 437.54 C 1139.70 434.16, 1141.06 432.52, 1142.22 430.29 C 1143.37 428.05, 1143.37 426.93, 1142.83 426.36 C 1142.30 425.79, 1141.30 425.79, 1139.54 427.43 C 1137.78 429.08, 1136.70 430.84, 1134.04 434.58 C 1131.38 438.32, 1129.64 441.04, 1126.24 446.14 C 1122.83 451.23, 1120.71 454.37, 1117.01 460.05 C 1113.32 465.73, 1111.20 468.90, 1107.77 474.54 C 1104.34 480.17, 1102.61 483.12, 1099.84 488.24 C 1097.07 493.35, 1095.77 495.92, 1093.91 500.12 C 1092.05 504.32, 1091.20 506.16, 1090.53 509.24 C 1089.87 512.33, 1089.92 513.69, 1090.58 515.54 C 1091.24 517.40, 1091.96 518.05, 1093.81 518.53 C 1095.67 519.00, 1097.03 518.98, 1099.83 517.91 C 1102.63 516.84, 1104.21 515.59, 1107.83 513.17 C 1111.46 510.76, 1113.65 509.06, 1117.97 505.84 C 1122.28 502.62, 1124.80 500.61, 1129.43 497.07 C 1134.05 493.54, 1136.64 491.40, 1141.10 488.16 C 1145.56 484.92, 1148.23 483.16, 1151.71 480.85 C 1155.20 478.54, 1156.87 477.61, 1158.52 476.62 C 1160.18 475.62, 1160.17 475.33, 1159.98 475.89 C 1159.79 476.45, 1158.93 477.27, 1157.56 479.43 C 1156.20 481.60, 1155.07 483.57, 1153.16 486.71 C 1151.25 489.86, 1149.91 491.95, 1148.02 495.17 C 1146.13 498.39, 1144.83 500.08, 1143.70 502.82 C 1142.58 505.56, 1142.18 507.00, 1142.41 508.88 C 1142.63 510.77, 1143.12 511.56, 1144.82 512.25 C 1146.53 512.95, 1147.88 513.07, 1150.92 512.37 C 1153.96 511.67, 1155.86 510.59, 1160.03 508.76 C 1164.20 506.94, 1166.81 505.53, 1171.77 503.24 C 1176.72 500.94, 1180.02 499.29, 1184.82 497.27 C 1189.63 495.26, 1192.40 494.26, 1195.79 493.16 C 1199.18 492.07, 1200.43 491.79, 1201.78 491.79 C 1203.13 491.80, 1203.05 492.06, 1202.54 493.20 C 1202.03 494.34, 1200.77 495.38, 1199.23 497.51 C 1197.70 499.63, 1196.19 501.24, 1194.86 503.81 C 1193.53 506.39, 1192.82 508.01, 1192.58 510.37 C 1192.33 512.74, 1192.40 513.98, 1193.64 515.65 C 1194.88 517.32, 1195.88 518.21, 1198.80 518.73 C 1201.71 519.25, 1203.76 518.92, 1208.20 518.26 C 1212.65 517.61, 1215.37 516.95, 1221.01 515.46 C 1226.65 513.97, 1230.00 512.94, 1236.40 510.82 C 1242.81 508.70, 1246.48 507.26, 1253.04 504.86 C 1259.60 502.46, 1263.16 501.03, 1269.20 498.81 C 1275.24 496.60, 1278.43 495.51, 1283.24 493.81 C 1288.05 492.10, 1290.43 491.57, 1293.25 490.29 C 1296.07 489.01, 1296.97 488.30, 1297.36 487.40 C 1297.74 486.49, 1297.11 485.82, 1295.17 485.77 C 1293.23 485.72, 1291.40 486.03, 1287.68 487.15 C 1283.96 488.28, 1281.29 489.36, 1276.59 491.40 C 1271.88 493.44, 1268.90 494.82, 1264.17 497.35 C 1259.43 499.89, 1256.75 501.45, 1252.91 504.08 C 1249.07 506.71, 1247.10 508.04, 1244.97 510.48 C 1242.83 512.93, 1242.26 514.28, 1242.25 516.29 C 1242.25 518.31, 1242.92 519.41, 1244.95 520.56 C 1246.97 521.71, 1248.74 521.99, 1252.37 522.06 C 1256.01 522.12, 1258.42 521.69, 1263.13 520.88 C 1267.83 520.07, 1270.72 519.32, 1275.90 518.01 C 1281.07 516.69, 1284.07 515.68, 1288.99 514.31 C 1293.91 512.93, 1296.58 512.14, 1300.50 511.14 C 1304.42 510.15, 1306.42 509.63, 1308.59 509.33 C 1310.76 509.03, 1311.28 508.71, 1311.34 509.63 C 1311.40 510.55, 1310.68 511.29, 1308.87 513.93 C 1307.06 516.56, 1305.72 518.60, 1302.30 522.80 C 1298.89 527.00, 1296.49 529.69, 1291.79 534.93 C 1287.09 540.16, 1284.20 543.18, 1278.80 548.97 C 1273.40 554.76, 1270.35 557.93, 1264.80 563.89 C 1259.24 569.85, 1256.29 573.04, 1251.03 578.76 C 1245.78 584.47, 1243.13 587.41, 1238.53 592.45 C 1233.92 597.50, 1231.75 599.99, 1228.01 603.97 C 1224.27 607.94, 1222.53 609.64, 1219.81 612.33 C 1217.10 615.01, 1215.88 615.90, 1214.45 617.38 C 1213.03 618.86, 1212.75 619.36, 1212.70 619.73 C 1212.65 620.10, 1213.07 620.03, 1214.21 619.24 C 1215.35 618.45, 1216.12 617.82, 1218.39 615.78 C 1220.67 613.75, 1221.92 612.12, 1225.58 609.06 C 1229.24 606.01, 1231.58 604.14, 1236.71 600.52 C 1241.85 596.90, 1244.91 594.87, 1251.26 590.97 C 1257.60 587.07, 1261.29 584.98, 1268.44 581.03 C 1275.58 577.07, 1279.51 574.98, 1286.99 571.18 C 1294.48 567.39, 1298.51 565.49, 1305.85 562.07 C 1313.19 558.65, 1316.99 557.02, 1323.70 554.09 C 1330.41 551.16, 1333.68 549.79, 1339.41 547.42 C 1345.15 545.04, 1347.84 544.04, 1352.37 542.21 C 1356.89 540.39, 1358.90 539.73, 1362.05 538.30 C 1365.20 536.87, 1367.01 535.92, 1368.14 535.07 C 1369.26 534.22, 1369.05 533.76, 1367.67 534.04 C 1366.30 534.32, 1364.46 535.17, 1361.27 536.47 C 1358.07 537.78, 1356.17 538.66, 1351.69 540.58 C 1347.20 542.50, 1344.54 543.61, 1338.84 546.07 C 1333.14 548.53, 1329.88 549.92, 1323.18 552.90 C 1316.47 555.88, 1312.68 557.53, 1305.34 560.97 C 1297.99 564.41, 1293.95 566.32, 1286.45 570.10 C 1278.94 573.89, 1275.01 575.98, 1267.82 579.90 C 1260.63 583.83, 1256.93 585.90, 1250.50 589.73 C 1244.08 593.55, 1240.99 595.56, 1235.70 599.04 C 1230.42 602.51, 1228.00 604.28, 1224.07 607.12 C 1220.14 609.95, 1218.35 611.05, 1216.03 613.19 C 1213.72 615.34, 1213.15 616.43, 1212.50 617.85 C 1211.85 619.26, 1212.10 620.02, 1212.79 620.27 C 1213.48 620.52, 1214.25 620.37, 1215.96 619.08 C 1217.67 617.79, 1218.69 616.62, 1221.34 613.81 C 1223.99 611.01, 1225.57 609.15, 1229.21 605.07 C 1232.86 600.98, 1235.00 598.47, 1239.55 593.38 C 1244.10 588.29, 1246.74 585.34, 1251.97 579.62 C 1257.21 573.89, 1260.16 570.70, 1265.72 564.76 C 1271.29 558.82, 1274.34 555.66, 1279.80 549.91 C 1285.26 544.17, 1288.18 541.19, 1293.01 536.05 C 1297.84 530.90, 1300.33 528.33, 1303.95 524.19 C 1307.57 520.05, 1309.37 518.32, 1311.11 515.35 C 1312.86 512.38, 1313.22 511.00, 1312.69 509.32 C 1312.17 507.65, 1311.04 507.09, 1308.48 507.00 C 1305.93 506.90, 1303.92 507.79, 1299.90 508.85 C 1295.89 509.92, 1293.33 510.89, 1288.42 512.31 C 1283.52 513.72, 1280.52 514.71, 1275.39 515.93 C 1270.25 517.15, 1267.34 517.78, 1262.74 518.41 C 1258.15 519.04, 1255.76 519.07, 1252.40 519.07 C 1249.03 519.08, 1247.60 518.96, 1245.92 518.43 C 1244.24 517.89, 1243.82 517.63, 1244.01 516.40 C 1244.21 515.16, 1244.85 514.34, 1246.88 512.24 C 1248.91 510.14, 1250.52 508.50, 1254.18 505.90 C 1257.84 503.30, 1260.50 501.69, 1265.17 499.25 C 1269.85 496.82, 1272.86 495.57, 1277.55 493.73 C 1282.23 491.89, 1285.00 491.23, 1288.59 490.06 C 1292.19 488.89, 1293.87 488.53, 1295.52 487.89 C 1297.17 487.24, 1297.49 486.81, 1296.85 486.84 C 1296.21 486.87, 1295.18 486.99, 1292.33 488.04 C 1289.48 489.09, 1287.33 490.22, 1282.60 492.08 C 1277.86 493.94, 1274.67 495.07, 1268.65 497.34 C 1262.64 499.61, 1259.07 501.05, 1252.52 503.43 C 1245.97 505.82, 1242.29 507.23, 1235.90 509.25 C 1229.50 511.28, 1226.14 512.25, 1220.54 513.55 C 1214.93 514.85, 1212.15 515.33, 1207.89 515.75 C 1203.64 516.17, 1201.76 515.94, 1199.25 515.65 C 1196.75 515.37, 1196.09 515.26, 1195.35 514.33 C 1194.61 513.41, 1194.86 512.72, 1195.54 511.05 C 1196.22 509.38, 1197.32 508.31, 1198.74 506.00 C 1200.16 503.68, 1201.50 501.97, 1202.63 499.46 C 1203.76 496.95, 1204.51 495.31, 1204.40 493.44 C 1204.28 491.57, 1203.92 490.66, 1202.05 490.13 C 1200.19 489.60, 1198.69 489.77, 1195.07 490.80 C 1191.46 491.83, 1188.82 493.19, 1183.97 495.28 C 1179.13 497.36, 1175.84 499.01, 1170.85 501.22 C 1165.86 503.43, 1163.17 504.72, 1159.02 506.31 C 1154.87 507.91, 1152.83 508.38, 1150.09 509.19 C 1147.35 510.01, 1146.45 510.43, 1145.32 510.37 C 1144.19 510.32, 1144.17 510.15, 1144.46 508.92 C 1144.74 507.70, 1145.49 506.65, 1146.75 504.23 C 1148.01 501.80, 1148.90 499.94, 1150.78 496.80 C 1152.66 493.67, 1154.20 491.72, 1156.15 488.55 C 1158.11 485.37, 1159.60 483.49, 1160.57 480.92 C 1161.55 478.34, 1161.60 476.90, 1161.03 475.67 C 1160.45 474.43, 1159.81 474.08, 1157.70 474.73 C 1155.58 475.39, 1154.00 476.58, 1150.45 478.96 C 1146.90 481.33, 1144.40 483.30, 1139.96 486.62 C 1135.53 489.94, 1132.94 492.07, 1128.28 495.57 C 1123.63 499.06, 1121.09 501.04, 1116.71 504.10 C 1112.33 507.17, 1110.04 508.75, 1106.40 510.89 C 1102.77 513.04, 1101.01 513.70, 1098.54 514.83 C 1096.08 515.96, 1095.32 516.49, 1094.09 516.53 C 1092.87 516.58, 1092.65 516.39, 1092.43 515.04 C 1092.21 513.69, 1092.34 512.62, 1092.99 509.79 C 1093.65 506.96, 1094.05 505.03, 1095.71 500.88 C 1097.37 496.72, 1098.63 494.12, 1101.30 489.02 C 1103.98 483.91, 1105.69 480.96, 1109.10 475.35 C 1112.52 469.74, 1114.64 466.58, 1118.40 460.96 C 1122.15 455.35, 1124.34 452.25, 1127.90 447.28 C 1131.45 442.32, 1133.42 439.75, 1136.15 436.12 C 1138.88 432.50, 1140.28 431.07, 1141.55 429.14 C 1142.83 427.22, 1142.80 426.53, 1142.52 426.50 C 1142.23 426.47, 1141.54 427.04, 1140.12 429.00 C 1138.70 430.96, 1137.85 432.87, 1135.40 436.29 C 1132.95 439.71, 1131.40 441.88, 1127.86 446.11 C 1124.33 450.33, 1122.19 452.71, 1117.73 457.42 C 1113.28 462.12, 1110.75 464.75, 1105.58 469.64 C 1100.41 474.52, 1097.45 477.21, 1091.88 481.84 C 1086.32 486.47, 1083.33 488.79, 1077.76 492.77 C 1072.18 496.76, 1069.26 498.74, 1064.02 501.79 C 1058.78 504.83, 1056.17 506.14, 1051.56 508.00 C 1046.94 509.86, 1044.76 510.43, 1040.95 511.10 C 1037.15 511.77, 1035.44 511.71, 1032.54 511.35 C 1029.63 510.98, 1028.50 510.47, 1026.42 509.28 C 1024.35 508.08, 1023.56 507.26, 1022.16 505.37 C 1020.76 503.48, 1020.28 502.28, 1019.42 499.84 C 1018.57 497.40, 1018.25 495.95, 1017.88 493.17 C 1017.51 490.39, 1017.45 488.74, 1017.59 485.94 C 1017.73 483.14, 1018.14 481.55, 1018.58 479.17 C 1019.02 476.78, 1019.35 475.70, 1019.78 474.01 C 1020.20 472.32, 1020.78 471.52, 1020.72 470.72 C 1020.66 469.92, 1020.25 469.58, 1019.48 470.00" style="stroke: black; fill: black;"/></svg>