<svg xmlns="http://www.w3.org/2000/svg" id="canvas" viewBox="258.063 353.369 1103.978 259.486"><path d="M 357.38,359.64 C 356.83 358.43, 355.96 357.32, 353.78 356.81 C 351.60 356.30, 349.77 356.05, 346.46 357.09 C 343.16 358.12, 341.30 359.25, 337.26 362.00 C 333.21 364.74, 331.05 366.48, 326.22 370.83 C 321.40 375.18, 318.60 377.74, 313.14 383.75 C 307.67 389.76, 304.57 393.31, 298.89 400.87 C 293.22 408.44, 289.99 412.92, 284.75 421.57 C 279.52 430.22, 276.74 435.26, 272.72 444.12 C 268.70 452.99, 266.95 457.72, 264.65 465.91 C 262.35 474.10, 261.57 478.22, 261.20 485.07 C 260.84 491.92, 261.13 495.12, 262.80 500.18 C 264.48 505.24, 266.01 507.46, 269.59 510.36 C 273.17 513.27, 275.80 514.11, 280.71 514.69 C 285.62 515.27, 288.61 514.81, 294.15 513.25 C 299.68 511.69, 302.79 510.25, 308.39 506.88 C 313.98 503.50, 317.01 501.14, 322.14 496.39 C 327.27 491.63, 329.87 488.62, 334.04 483.11 C 338.21 477.59, 340.18 474.40, 342.99 468.80 C 345.80 463.20, 347.00 460.21, 348.07 455.11 C 349.15 450.00, 349.25 447.41, 348.35 443.28 C 347.46 439.15, 346.23 437.21, 343.60 434.46 C 340.97 431.71, 338.83 430.72, 335.20 429.52 C 331.56 428.32, 329.12 428.15, 325.44 428.46 C 321.76 428.77, 319.41 429.28, 316.78 431.05 C 314.16 432.82, 312.91 434.66, 312.32 437.33 C 311.73 440.00, 312.03 442.16, 313.84 444.41 C 315.65 446.66, 317.53 447.62, 321.37 448.58 C 325.21 449.55, 327.75 449.34, 333.02 449.24 C 338.30 449.13, 341.50 448.77, 347.74 448.04 C 353.97 447.32, 357.55 446.61, 364.18 445.62 C 370.80 444.63, 374.65 443.86, 380.88 443.11 C 387.11 442.36, 390.47 442.00, 395.33 441.88 C 400.20 441.76, 402.56 442.14, 405.20 442.51 C 407.84 442.88, 408.26 442.59, 408.53 443.73 C 408.80 444.86, 408.06 445.46, 406.55 448.19 C 405.03 450.93, 403.80 453.18, 400.94 457.41 C 398.07 461.64, 395.87 464.42, 392.21 469.34 C 388.56 474.27, 386.19 477.12, 382.66 482.03 C 379.12 486.95, 377.17 489.54, 374.52 493.92 C 371.88 498.29, 370.36 500.31, 369.43 503.90 C 368.50 507.49, 368.66 509.38, 369.89 511.88 C 371.11 514.38, 372.71 515.68, 375.55 516.42 C 378.40 517.16, 380.42 516.85, 384.13 515.58 C 387.84 514.30, 389.82 512.76, 394.09 510.06 C 398.35 507.35, 400.76 505.53, 405.48 502.06 C 410.19 498.59, 412.83 496.57, 417.64 492.72 C 422.46 488.87, 425.10 486.64, 429.55 482.80 C 434.00 478.95, 436.22 476.95, 439.90 473.49 C 443.58 470.03, 445.42 468.52, 447.95 465.49 C 450.49 462.45, 451.82 460.83, 452.57 458.32 C 453.32 455.81, 452.84 454.58, 451.71 452.93 C 450.58 451.28, 449.32 450.40, 446.93 450.05 C 444.55 449.70, 442.64 449.62, 439.79 451.19 C 436.93 452.75, 435.60 454.77, 432.67 457.89 C 429.74 461.02, 427.99 462.97, 425.12 466.81 C 422.26 470.65, 420.63 472.92, 418.34 477.09 C 416.04 481.25, 414.87 483.57, 413.65 487.62 C 412.43 491.67, 411.79 493.78, 412.23 497.33 C 412.68 500.88, 413.55 502.89, 415.87 505.38 C 418.20 507.87, 420.15 508.93, 423.84 509.77 C 427.53 510.61, 429.80 510.41, 434.31 509.59 C 438.83 508.76, 441.38 507.76, 446.44 505.67 C 451.50 503.57, 454.23 502.12, 459.60 499.10 C 464.97 496.08, 467.90 494.10, 473.28 490.56 C 478.67 487.03, 481.67 484.87, 486.53 481.44 C 491.39 478.02, 494.06 476.03, 497.57 473.43 C 501.08 470.84, 502.76 469.88, 504.07 468.46 C 505.38 467.04, 504.99 466.18, 504.10 466.33 C 503.22 466.47, 501.65 466.95, 499.65 469.20 C 497.66 471.46, 496.40 474.03, 494.14 477.60 C 491.88 481.16, 490.20 483.55, 488.36 487.03 C 486.51 490.52, 485.14 492.30, 484.89 495.03 C 484.65 497.76, 485.36 499.32, 487.15 500.67 C 488.94 502.02, 490.74 502.73, 493.84 501.79 C 496.95 500.84, 498.61 498.79, 502.66 495.96 C 506.71 493.12, 509.30 490.95, 514.10 487.62 C 518.89 484.29, 522.02 482.02, 526.64 479.31 C 531.25 476.59, 533.92 475.41, 537.18 474.03 C 540.43 472.64, 541.62 472.50, 542.93 472.38 C 544.23 472.26, 544.02 472.38, 543.70 473.44 C 543.38 474.50, 542.29 475.38, 541.32 477.68 C 540.36 479.98, 539.54 481.83, 538.89 484.94 C 538.24 488.05, 537.81 490.03, 538.07 493.23 C 538.34 496.43, 538.56 498.31, 540.23 500.96 C 541.89 503.61, 543.24 505.33, 546.39 506.46 C 549.54 507.60, 551.89 507.35, 555.98 506.64 C 560.06 505.92, 562.08 504.96, 566.83 502.89 C 571.59 500.83, 574.38 499.40, 579.75 496.32 C 585.12 493.24, 588.34 491.22, 593.67 487.48 C 599.00 483.73, 601.83 481.46, 606.42 477.61 C 611.01 473.75, 613.19 471.69, 616.61 468.20 C 620.03 464.70, 621.88 463.20, 623.52 460.13 C 625.16 457.06, 625.41 455.35, 624.82 452.85 C 624.24 450.36, 623.07 448.81, 620.60 447.65 C 618.13 446.50, 616.01 446.17, 612.48 447.07 C 608.95 447.98, 606.86 449.54, 602.95 452.18 C 599.04 454.81, 596.75 456.65, 592.91 460.25 C 589.08 463.85, 586.90 466.06, 583.78 470.17 C 580.66 474.29, 579.11 476.67, 577.31 480.82 C 575.52 484.98, 574.63 487.20, 574.82 490.93 C 575.01 494.66, 575.85 496.95, 578.27 499.48 C 580.69 502.02, 582.77 502.91, 586.91 503.60 C 591.06 504.29, 593.71 503.95, 599.02 502.93 C 604.33 501.90, 607.35 500.78, 613.47 498.48 C 619.59 496.18, 623.12 494.42, 629.61 491.42 C 636.09 488.42, 639.87 486.43, 645.88 483.47 C 651.89 480.50, 655.08 478.66, 659.68 476.62 C 664.28 474.58, 666.66 474.23, 668.90 473.27 C 671.13 472.31, 671.16 471.63, 670.86 471.82 C 670.57 472.01, 669.09 472.48, 667.42 474.23 C 665.76 475.97, 664.78 477.90, 662.54 480.53 C 660.30 483.16, 658.47 484.90, 656.22 487.36 C 653.97 489.82, 652.29 491.00, 651.28 492.81 C 650.26 494.63, 650.48 495.78, 651.12 496.45 C 651.77 497.12, 652.88 497.21, 654.51 496.15 C 656.14 495.09, 656.98 493.80, 659.26 491.15 C 661.54 488.50, 662.92 486.19, 665.92 482.89 C 668.92 479.58, 670.76 477.57, 674.24 474.61 C 677.73 471.66, 679.73 470.28, 683.35 468.11 C 686.98 465.93, 688.93 465.07, 692.36 463.76 C 695.79 462.44, 697.30 462.04, 700.50 461.52 C 703.70 461.01, 705.19 461.14, 708.34 461.18 C 711.50 461.23, 713.06 461.51, 716.27 461.76 C 719.49 462.00, 721.03 462.19, 724.42 462.41 C 727.81 462.63, 729.61 462.78, 733.21 462.84 C 736.81 462.89, 738.78 462.91, 742.41 462.67 C 746.04 462.44, 748.04 462.21, 751.35 461.66 C 754.66 461.12, 756.34 460.85, 758.97 459.97 C 761.59 459.08, 762.87 458.59, 764.48 457.22 C 766.09 455.84, 766.78 454.84, 767.03 453.08 C 767.28 451.33, 766.91 449.95, 765.74 448.45 C 764.58 446.95, 763.54 446.15, 761.21 445.60 C 758.87 445.04, 757.05 444.79, 754.05 445.68 C 751.04 446.57, 749.42 447.93, 746.18 450.04 C 742.94 452.15, 741.16 453.42, 737.85 456.25 C 734.55 459.07, 732.76 460.73, 729.67 464.16 C 726.58 467.59, 724.95 469.75, 722.41 473.38 C 719.87 477.00, 718.53 478.79, 716.96 482.28 C 715.40 485.77, 714.49 487.66, 714.57 490.83 C 714.65 493.99, 715.48 495.85, 717.38 498.10 C 719.28 500.35, 721.01 501.37, 724.07 502.07 C 727.13 502.78, 729.01 502.54, 732.68 501.65 C 736.35 500.76, 738.49 499.71, 742.42 497.62 C 746.35 495.53, 748.39 494.04, 752.35 491.20 C 756.31 488.37, 758.68 486.36, 762.22 483.44 C 765.77 480.53, 768.22 479.02, 770.08 476.63 C 771.94 474.23, 771.91 472.60, 771.54 471.46 C 771.16 470.32, 770.01 470.17, 768.19 470.91 C 766.37 471.65, 763.67 472.57, 762.44 475.16 C 761.21 477.74, 760.89 481.67, 762.04 483.84 C 763.19 486.02, 765.97 486.86, 768.19 486.02 C 770.41 485.19, 772.18 482.26, 773.13 479.67 C 774.09 477.09, 773.52 475.11, 772.96 473.09 C 772.40 471.07, 771.94 469.92, 770.33 469.58 C 768.71 469.23, 767.31 469.51, 764.88 471.36 C 762.44 473.21, 761.34 475.82, 758.16 478.83 C 754.97 481.84, 752.68 483.82, 748.96 486.41 C 745.25 489.01, 743.19 490.24, 739.60 491.81 C 736.01 493.37, 733.90 493.67, 731.01 494.26 C 728.13 494.85, 727.01 494.79, 725.18 494.76 C 723.34 494.73, 722.62 494.85, 721.84 494.11 C 721.06 493.36, 721.02 492.86, 721.25 491.03 C 721.48 489.19, 721.78 487.79, 723.00 484.94 C 724.23 482.09, 725.17 480.12, 727.38 476.77 C 729.60 473.43, 731.18 471.30, 734.08 468.22 C 736.98 465.14, 738.71 463.63, 741.88 461.38 C 745.04 459.13, 746.95 458.18, 749.90 456.98 C 752.85 455.78, 754.39 455.87, 756.61 455.37 C 758.84 454.88, 759.68 454.98, 761.01 454.51 C 762.35 454.03, 762.78 453.59, 763.29 453.00 C 763.80 452.40, 763.93 451.90, 763.56 451.53 C 763.20 451.16, 762.86 451.02, 761.46 451.13 C 760.07 451.24, 758.90 451.48, 756.58 452.09 C 754.26 452.70, 752.83 453.49, 749.88 454.18 C 746.93 454.87, 745.15 455.22, 741.83 455.55 C 738.52 455.88, 736.69 455.86, 733.30 455.83 C 729.90 455.80, 728.18 455.60, 724.87 455.39 C 721.56 455.18, 720.05 454.95, 716.73 454.76 C 713.41 454.58, 711.74 454.34, 708.26 454.46 C 704.78 454.59, 702.94 454.61, 699.33 455.40 C 695.71 456.18, 693.96 456.81, 690.19 458.41 C 686.43 460.00, 684.41 461.03, 680.51 463.38 C 676.61 465.74, 674.53 467.23, 670.68 470.19 C 666.83 473.14, 664.78 475.03, 661.26 478.16 C 657.73 481.28, 655.55 482.93, 653.06 485.80 C 650.58 488.68, 649.40 490.15, 648.83 492.52 C 648.27 494.90, 648.86 496.49, 650.23 497.68 C 651.59 498.87, 653.23 499.32, 655.66 498.47 C 658.08 497.62, 659.66 495.97, 662.35 493.44 C 665.05 490.90, 666.76 488.91, 669.12 485.79 C 671.47 482.66, 673.26 480.84, 674.14 477.80 C 675.02 474.76, 674.84 472.56, 673.52 470.57 C 672.20 468.58, 670.71 467.46, 667.54 467.85 C 664.38 468.24, 662.39 470.09, 657.71 472.51 C 653.02 474.94, 650.06 476.89, 644.11 479.97 C 638.17 483.05, 634.42 485.01, 628.00 487.90 C 621.58 490.79, 617.99 492.42, 612.02 494.42 C 606.06 496.41, 603.00 497.21, 598.18 497.87 C 593.36 498.53, 591.01 498.24, 587.92 497.70 C 584.83 497.16, 584.14 496.55, 582.74 495.15 C 581.35 493.75, 581.00 493.11, 580.94 490.68 C 580.89 488.25, 581.05 486.45, 582.46 482.99 C 583.88 479.53, 585.17 477.10, 588.00 473.38 C 590.84 469.66, 592.96 467.53, 596.64 464.41 C 600.31 461.29, 602.75 459.75, 606.37 457.77 C 610.00 455.79, 612.19 455.49, 614.76 454.53 C 617.33 453.57, 618.10 453.20, 619.22 452.97 C 620.34 452.74, 620.55 452.55, 620.36 453.38 C 620.17 454.21, 619.74 454.79, 618.28 457.10 C 616.81 459.41, 615.97 461.48, 613.04 464.94 C 610.12 468.39, 608.00 470.56, 603.65 474.38 C 599.29 478.20, 596.49 480.43, 591.27 484.02 C 586.05 487.61, 582.83 489.55, 577.55 492.32 C 572.27 495.08, 569.37 496.29, 564.86 497.84 C 560.36 499.38, 558.28 499.70, 555.03 500.05 C 551.77 500.39, 550.36 499.99, 548.57 499.57 C 546.79 499.14, 546.44 499.12, 546.09 497.90 C 545.74 496.69, 546.39 495.67, 546.82 493.49 C 547.25 491.30, 547.58 489.78, 548.22 486.97 C 548.86 484.15, 549.94 482.37, 550.01 479.39 C 550.09 476.41, 549.90 474.41, 548.61 472.05 C 547.32 469.69, 546.27 468.24, 543.56 467.59 C 540.86 466.94, 538.99 467.32, 535.08 468.79 C 531.18 470.27, 528.83 472.08, 524.05 474.96 C 519.26 477.84, 516.12 480.07, 511.17 483.21 C 506.21 486.35, 503.35 488.27, 499.26 490.64 C 495.17 493.02, 492.89 493.56, 490.73 495.06 C 488.56 496.56, 488.42 497.69, 488.45 498.13 C 488.47 498.58, 489.51 498.71, 490.84 497.29 C 492.18 495.86, 493.11 494.09, 495.12 491.01 C 497.13 487.93, 498.62 485.45, 500.89 481.89 C 503.16 478.33, 505.32 476.33, 506.48 473.20 C 507.63 470.07, 507.64 468.06, 506.69 466.24 C 505.74 464.43, 504.20 463.52, 501.74 464.12 C 499.28 464.72, 497.95 466.48, 494.40 469.25 C 490.84 472.01, 488.63 474.37, 483.96 477.94 C 479.28 481.52, 476.31 483.65, 471.02 487.11 C 465.73 490.57, 462.78 492.48, 457.51 495.24 C 452.23 498.01, 449.45 499.27, 444.64 500.95 C 439.82 502.64, 437.28 503.23, 433.42 503.67 C 429.56 504.11, 427.89 503.73, 425.33 503.16 C 422.77 502.60, 421.93 502.17, 420.61 500.85 C 419.30 499.54, 419.01 498.89, 418.78 496.58 C 418.55 494.27, 418.54 492.65, 419.46 489.31 C 420.39 485.98, 421.31 483.64, 423.40 479.90 C 425.50 476.17, 427.08 473.97, 429.93 470.64 C 432.78 467.32, 434.71 465.59, 437.65 463.28 C 440.60 460.98, 442.58 460.55, 444.65 459.11 C 446.71 457.66, 447.09 456.96, 447.96 456.06 C 448.82 455.16, 449.12 454.65, 448.96 454.60 C 448.79 454.54, 448.26 454.32, 447.15 455.78 C 446.04 457.24, 445.51 459.03, 443.40 461.91 C 441.29 464.78, 439.92 466.63, 436.58 470.16 C 433.25 473.69, 431.04 475.72, 426.71 479.55 C 422.39 483.39, 419.77 485.61, 414.97 489.32 C 410.18 493.04, 407.49 494.99, 402.74 498.14 C 397.98 501.28, 395.39 502.87, 391.20 505.04 C 387.01 507.21, 384.78 507.87, 381.79 508.97 C 378.80 510.07, 377.77 510.32, 376.27 510.54 C 374.76 510.75, 374.51 511.05, 374.25 510.04 C 374.00 509.03, 374.10 508.24, 374.99 505.50 C 375.88 502.76, 376.45 500.49, 378.71 496.32 C 380.96 492.15, 382.82 489.45, 386.28 484.63 C 389.73 479.82, 392.14 477.04, 395.97 472.23 C 399.79 467.42, 402.18 464.88, 405.39 460.58 C 408.60 456.29, 410.57 454.42, 412.03 450.75 C 413.49 447.07, 413.84 444.92, 412.71 442.21 C 411.57 439.49, 409.89 438.17, 406.37 437.19 C 402.85 436.20, 400.31 436.89, 395.10 437.27 C 389.90 437.65, 386.66 438.20, 380.36 439.07 C 374.06 439.94, 370.21 440.72, 363.61 441.61 C 357.00 442.51, 353.41 443.14, 347.32 443.54 C 341.24 443.94, 338.02 444.00, 333.17 443.62 C 328.33 443.25, 326.12 442.42, 323.09 441.67 C 320.07 440.92, 319.21 440.41, 318.05 439.89 C 316.90 439.38, 316.83 439.46, 317.31 439.09 C 317.80 438.72, 318.69 438.61, 320.49 438.04 C 322.29 437.48, 323.71 436.64, 326.30 436.25 C 328.88 435.87, 330.76 435.63, 333.40 436.13 C 336.04 436.63, 337.49 437.09, 339.49 438.76 C 341.48 440.43, 342.52 441.38, 343.37 444.48 C 344.22 447.58, 344.52 449.75, 343.74 454.27 C 342.95 458.79, 342.00 461.75, 339.46 467.07 C 336.93 472.39, 335.05 475.56, 331.07 480.87 C 327.09 486.18, 324.53 489.10, 319.58 493.60 C 314.63 498.10, 311.63 500.29, 306.31 503.36 C 300.99 506.42, 297.98 507.59, 292.96 508.93 C 287.94 510.27, 285.34 510.47, 281.21 510.07 C 277.07 509.67, 275.25 509.15, 272.28 506.93 C 269.32 504.70, 267.96 503.28, 266.39 498.94 C 264.81 494.59, 264.20 491.66, 264.39 485.20 C 264.58 478.75, 265.19 474.65, 267.33 466.65 C 269.47 458.65, 271.15 453.93, 275.09 445.19 C 279.02 436.45, 281.77 431.45, 286.99 422.93 C 292.20 414.42, 295.44 409.98, 301.16 402.61 C 306.88 395.23, 310.02 391.76, 315.59 386.06 C 321.15 380.36, 324.05 377.90, 328.97 374.10 C 333.88 370.31, 336.21 368.89, 340.16 367.07 C 344.10 365.26, 345.97 365.66, 348.67 365.03 C 351.37 364.41, 352.07 364.37, 353.64 363.93 C 355.21 363.49, 355.77 363.70, 356.52 362.84 C 357.27 361.98, 357.93 360.85, 357.38 359.64" style="stroke: black; fill: black;"/><path d="M 781.39,485.08 C 782.78 485.47, 784.07 485.51, 786.70 484.21 C 789.32 482.91, 790.70 481.48, 794.50 478.59 C 798.30 475.69, 800.71 473.75, 805.70 469.73 C 810.68 465.71, 813.60 463.30, 819.42 458.48 C 825.24 453.67, 828.60 451.06, 834.80 445.66 C 841.00 440.26, 844.28 437.22, 850.41 431.48 C 856.53 425.74, 859.83 422.67, 865.42 416.95 C 871.01 411.24, 873.88 408.25, 878.37 402.91 C 882.85 397.57, 884.87 394.90, 887.82 390.27 C 890.78 385.65, 892.33 383.52, 893.15 379.80 C 893.96 376.07, 893.78 373.82, 891.89 371.66 C 889.99 369.49, 887.75 368.52, 883.67 368.97 C 879.60 369.42, 876.99 370.76, 871.51 373.91 C 866.03 377.06, 862.80 379.46, 856.29 384.73 C 849.79 389.99, 845.72 393.34, 839.00 400.24 C 832.28 407.13, 828.45 411.39, 822.68 419.19 C 816.90 426.99, 814.24 431.52, 810.13 439.23 C 806.01 446.95, 804.25 450.89, 802.09 457.78 C 799.93 464.67, 799.13 468.04, 799.34 473.68 C 799.55 479.32, 800.40 481.99, 803.14 485.99 C 805.88 489.98, 808.06 491.52, 813.03 493.65 C 818.01 495.79, 821.39 496.24, 828.01 496.66 C 834.62 497.07, 839.31 496.50, 846.13 495.74 C 852.94 494.98, 856.70 494.03, 862.06 492.86 C 867.43 491.69, 870.93 491.10, 872.97 489.89 C 875.00 488.67, 874.58 486.98, 872.24 486.79 C 869.91 486.61, 866.60 487.99, 861.28 488.95 C 855.97 489.90, 852.27 490.86, 845.67 491.58 C 839.06 492.29, 834.46 492.87, 828.26 492.51 C 822.05 492.15, 819.01 491.56, 814.65 489.79 C 810.29 488.02, 808.80 486.91, 806.46 483.66 C 804.13 480.40, 803.23 478.51, 802.95 473.51 C 802.67 468.52, 803.14 465.28, 805.07 458.68 C 807.00 452.08, 808.63 448.11, 812.59 440.53 C 816.55 432.96, 819.16 428.46, 824.86 420.81 C 830.55 413.16, 834.36 408.95, 841.07 402.29 C 847.79 395.63, 851.94 392.38, 858.45 387.49 C 864.96 382.61, 868.42 380.49, 873.64 377.87 C 878.86 375.25, 881.52 375.09, 884.55 374.39 C 887.58 373.69, 888.07 373.55, 888.80 374.37 C 889.53 375.19, 889.09 375.73, 888.19 378.49 C 887.29 381.25, 886.80 383.71, 884.31 388.16 C 881.81 392.62, 879.95 395.43, 875.73 400.76 C 871.51 406.09, 868.68 409.10, 863.20 414.80 C 857.72 420.50, 854.44 423.58, 848.34 429.27 C 842.25 434.96, 838.97 437.97, 832.73 443.25 C 826.50 448.52, 823.11 451.08, 817.16 455.66 C 811.22 460.23, 808.18 462.51, 803.00 466.14 C 797.81 469.76, 795.23 471.38, 791.23 473.78 C 787.23 476.18, 785.30 476.44, 783.00 478.14 C 780.70 479.84, 780.07 480.87, 779.74 482.26 C 779.42 483.65, 780.00 484.69, 781.39 485.08" style="stroke: black; fill: black;"/><path d="M 993.24,388.79 C 992.14 389.46, 991.57 390.00, 990.82 392.43 C 990.06 394.86, 990.37 396.66, 989.47 400.93 C 988.57 405.20, 988.28 407.86, 986.33 413.77 C 984.38 419.67, 982.93 423.40, 979.73 430.47 C 976.54 437.53, 974.37 441.50, 970.35 449.08 C 966.34 456.66, 964.00 460.76, 959.67 468.37 C 955.34 475.98, 952.87 480.13, 948.70 487.12 C 944.54 494.11, 942.36 497.61, 938.85 503.32 C 935.33 509.03, 933.51 511.57, 931.15 515.67 C 928.79 519.77, 927.36 521.53, 927.02 523.82 C 926.69 526.11, 927.91 527.40, 929.49 527.11 C 931.07 526.83, 932.15 525.79, 934.92 522.40 C 937.69 519.01, 939.03 516.05, 943.34 510.16 C 947.65 504.28, 950.35 500.34, 956.48 492.97 C 962.61 485.60, 966.48 481.27, 973.99 473.32 C 981.50 465.38, 985.74 461.09, 994.04 453.23 C 1002.34 445.37, 1006.86 441.32, 1015.48 434.01 C 1024.11 426.70, 1028.82 423.13, 1037.17 416.67 C 1045.52 410.21, 1049.68 407.14, 1057.23 401.72 C 1064.77 396.29, 1068.52 393.76, 1074.91 389.55 C 1081.30 385.34, 1084.43 383.54, 1089.17 380.67 C 1093.91 377.80, 1095.99 377.05, 1098.61 375.22 C 1101.23 373.39, 1101.75 372.60, 1102.27 371.53 C 1102.80 370.46, 1102.44 369.87, 1101.24 369.86 C 1100.05 369.85, 1099.13 369.96, 1096.31 371.49 C 1093.49 373.03, 1091.75 374.39, 1087.15 377.52 C 1082.54 380.65, 1079.54 382.71, 1073.27 387.15 C 1066.99 391.59, 1063.26 394.17, 1055.77 399.72 C 1048.27 405.27, 1044.12 408.36, 1035.79 414.89 C 1027.45 421.42, 1022.73 425.01, 1014.08 432.35 C 1005.42 439.70, 1000.88 443.75, 992.51 451.61 C 984.13 459.46, 979.87 463.74, 972.20 471.61 C 964.54 479.49, 960.62 483.80, 954.19 490.99 C 947.77 498.19, 944.80 501.97, 940.07 507.59 C 935.34 513.21, 933.02 515.51, 930.53 519.08 C 928.05 522.65, 927.57 524.10, 927.66 525.43 C 927.75 526.75, 929.50 527.24, 930.99 525.72 C 932.48 524.21, 932.95 521.98, 935.11 517.85 C 937.28 513.71, 938.58 510.90, 941.82 505.06 C 945.06 499.22, 947.24 495.70, 951.32 488.65 C 955.39 481.60, 957.86 477.44, 962.21 469.81 C 966.56 462.19, 968.92 458.11, 973.07 450.55 C 977.22 442.98, 979.45 439.03, 982.95 432.00 C 986.45 424.96, 988.10 421.25, 990.58 415.36 C 993.06 409.47, 993.88 406.87, 995.35 402.55 C 996.82 398.23, 997.73 396.44, 997.92 393.74 C 998.11 391.05, 997.25 390.08, 996.31 389.09 C 995.38 388.10, 994.34 388.12, 993.24 388.79" style="stroke: black; fill: black;"/><path d="M 985.20,470.07 C 983.06 470.50, 979.54 472.83, 978.03 475.50 C 976.52 478.18, 976.86 480.62, 977.66 483.45 C 978.46 486.28, 979.92 487.66, 982.04 489.66 C 984.16 491.66, 985.69 492.16, 988.25 493.43 C 990.82 494.70, 992.33 495.03, 994.85 496.01 C 997.38 496.99, 998.57 497.35, 1000.88 498.33 C 1003.19 499.31, 1004.30 499.81, 1006.40 500.92 C 1008.50 502.03, 1009.38 502.62, 1011.39 503.87 C 1013.40 505.12, 1014.23 505.87, 1016.46 507.17 C 1018.68 508.47, 1019.88 509.30, 1022.52 510.35 C 1025.16 511.39, 1026.61 512.00, 1029.66 512.41 C 1032.71 512.81, 1034.33 512.90, 1037.76 512.39 C 1041.18 511.88, 1043.01 511.41, 1046.78 509.87 C 1050.54 508.33, 1052.57 507.12, 1056.58 504.70 C 1060.59 502.28, 1062.70 500.84, 1066.84 497.78 C 1070.98 494.73, 1073.20 492.92, 1077.27 489.43 C 1081.33 485.94, 1083.43 483.80, 1087.17 480.33 C 1090.92 476.85, 1092.85 474.92, 1095.99 472.06 C 1099.13 469.19, 1101.34 468.11, 1102.85 466.01 C 1104.37 463.92, 1104.18 462.44, 1103.55 461.56 C 1102.92 460.69, 1101.38 460.35, 1099.72 461.63 C 1098.05 462.91, 1097.16 464.74, 1095.24 467.97 C 1093.32 471.20, 1092.09 473.63, 1090.10 477.78 C 1088.11 481.94, 1086.97 484.57, 1085.29 488.74 C 1083.62 492.91, 1082.54 494.99, 1081.73 498.64 C 1080.92 502.29, 1080.56 504.03, 1081.25 506.98 C 1081.94 509.93, 1082.95 511.53, 1085.18 513.40 C 1087.41 515.27, 1089.13 516.14, 1092.40 516.33 C 1095.67 516.51, 1097.66 515.76, 1101.52 514.32 C 1105.37 512.88, 1107.38 511.60, 1111.67 509.11 C 1115.96 506.61, 1118.30 504.99, 1122.96 501.85 C 1127.63 498.71, 1130.20 496.83, 1134.98 493.42 C 1139.75 490.01, 1142.39 487.84, 1146.85 484.80 C 1151.31 481.75, 1153.84 480.29, 1157.27 478.21 C 1160.71 476.13, 1162.58 475.47, 1164.02 474.40 C 1165.47 473.33, 1165.14 472.62, 1164.51 472.87 C 1163.88 473.11, 1162.54 473.64, 1160.87 475.63 C 1159.19 477.61, 1158.32 479.64, 1156.13 482.78 C 1153.94 485.93, 1152.20 488.14, 1149.92 491.36 C 1147.65 494.59, 1145.79 496.07, 1144.75 498.91 C 1143.70 501.74, 1143.80 503.47, 1144.70 505.53 C 1145.59 507.60, 1146.76 508.84, 1149.21 509.23 C 1151.67 509.62, 1153.47 509.10, 1156.98 507.48 C 1160.48 505.85, 1162.42 503.86, 1166.74 501.11 C 1171.06 498.36, 1173.81 496.40, 1178.58 493.73 C 1183.34 491.06, 1186.39 489.55, 1190.57 487.77 C 1194.76 486.00, 1196.99 485.64, 1199.50 484.85 C 1202.01 484.07, 1202.48 483.68, 1203.14 483.84 C 1203.80 483.99, 1203.36 484.40, 1202.80 485.61 C 1202.23 486.82, 1201.04 487.71, 1200.32 489.88 C 1199.59 492.05, 1199.03 493.78, 1199.18 496.46 C 1199.33 499.13, 1199.70 500.84, 1201.08 503.26 C 1202.45 505.68, 1203.40 507.20, 1206.04 508.55 C 1208.69 509.89, 1210.63 510.28, 1214.31 509.98 C 1218.00 509.68, 1219.89 508.72, 1224.46 507.05 C 1229.03 505.37, 1231.75 504.12, 1237.16 501.60 C 1242.57 499.08, 1245.70 497.43, 1251.50 494.46 C 1257.31 491.49, 1260.50 489.65, 1266.18 486.76 C 1271.85 483.88, 1275.00 482.23, 1279.89 480.02 C 1284.78 477.82, 1287.45 477.30, 1290.64 475.73 C 1293.82 474.16, 1295.23 473.31, 1295.81 472.16 C 1296.40 471.02, 1295.44 469.79, 1293.56 469.99 C 1291.68 470.19, 1289.83 471.12, 1286.41 473.18 C 1282.98 475.24, 1280.53 477.20, 1276.43 480.28 C 1272.33 483.37, 1269.70 485.53, 1265.90 488.60 C 1262.10 491.68, 1259.68 492.92, 1257.44 495.64 C 1255.20 498.37, 1254.56 500.02, 1254.70 502.22 C 1254.84 504.43, 1255.97 505.74, 1258.15 506.66 C 1260.34 507.59, 1262.30 507.70, 1265.64 506.85 C 1268.98 506.01, 1270.92 504.52, 1274.85 502.44 C 1278.79 500.36, 1281.06 498.92, 1285.32 496.45 C 1289.58 493.99, 1292.09 492.48, 1296.15 490.11 C 1300.21 487.74, 1302.49 486.50, 1305.61 484.60 C 1308.74 482.69, 1310.30 481.97, 1311.78 480.58 C 1313.26 479.19, 1313.33 478.07, 1313.00 477.63 C 1312.68 477.20, 1311.35 476.97, 1310.16 478.41 C 1308.98 479.85, 1308.48 481.37, 1307.09 484.82 C 1305.71 488.27, 1305.13 490.80, 1303.23 495.66 C 1301.33 500.52, 1300.05 503.39, 1297.61 509.11 C 1295.18 514.84, 1293.76 518.04, 1291.05 524.28 C 1288.35 530.52, 1287.01 533.94, 1284.07 540.32 C 1281.13 546.69, 1279.65 550.08, 1276.37 556.15 C 1273.09 562.23, 1271.42 565.28, 1267.68 570.69 C 1263.94 576.09, 1261.92 578.70, 1257.67 583.18 C 1253.42 587.65, 1251.01 589.70, 1246.43 593.05 C 1241.85 596.40, 1239.32 597.85, 1234.76 599.93 C 1230.20 602.01, 1227.69 602.68, 1223.62 603.46 C 1219.56 604.24, 1217.36 604.14, 1214.42 603.84 C 1211.48 603.53, 1210.42 602.95, 1208.92 601.94 C 1207.42 600.93, 1207.14 600.38, 1206.93 598.77 C 1206.72 597.15, 1206.85 596.27, 1207.88 593.87 C 1208.91 591.46, 1209.49 589.76, 1212.06 586.74 C 1214.63 583.72, 1216.28 581.96, 1220.72 578.77 C 1225.16 575.59, 1228.02 573.98, 1234.26 570.81 C 1240.49 567.65, 1244.47 566.06, 1251.89 562.96 C 1259.31 559.87, 1263.53 558.36, 1271.37 555.33 C 1279.21 552.30, 1283.39 550.75, 1291.09 547.82 C 1298.80 544.90, 1302.87 543.43, 1309.88 540.70 C 1316.90 537.97, 1320.22 536.68, 1326.17 534.16 C 1332.11 531.63, 1334.79 530.39, 1339.59 528.08 C 1344.39 525.78, 1346.76 524.60, 1350.16 522.62 C 1353.55 520.64, 1354.79 519.85, 1356.56 518.18 C 1358.33 516.52, 1358.80 515.43, 1359.00 514.30 C 1359.20 513.17, 1358.67 512.60, 1357.57 512.53 C 1356.46 512.46, 1355.52 512.82, 1353.47 513.93 C 1351.43 515.04, 1350.50 515.98, 1347.33 518.08 C 1344.17 520.17, 1342.17 521.82, 1337.66 524.40 C 1333.14 526.97, 1330.54 528.28, 1324.75 530.96 C 1318.96 533.63, 1315.66 534.95, 1308.72 537.76 C 1301.77 540.58, 1297.71 542.07, 1290.02 545.02 C 1282.33 547.96, 1278.15 549.51, 1270.28 552.48 C 1262.40 555.46, 1258.18 556.91, 1250.65 559.90 C 1243.11 562.88, 1239.10 564.38, 1232.60 567.39 C 1226.10 570.39, 1223.11 571.85, 1218.15 574.91 C 1213.20 577.98, 1211.16 579.48, 1207.81 582.72 C 1204.46 585.97, 1202.86 587.66, 1201.40 591.13 C 1199.95 594.60, 1199.77 596.87, 1200.54 600.06 C 1201.31 603.26, 1202.57 605.18, 1205.25 607.13 C 1207.93 609.07, 1210.04 609.54, 1213.94 609.79 C 1217.84 610.04, 1220.20 609.56, 1224.75 608.37 C 1229.29 607.19, 1231.85 606.32, 1236.66 603.89 C 1241.48 601.46, 1244.07 599.86, 1248.81 596.23 C 1253.56 592.59, 1256.01 590.41, 1260.37 585.71 C 1264.72 581.00, 1266.79 578.27, 1270.60 572.69 C 1274.42 567.12, 1276.10 563.99, 1279.44 557.82 C 1282.78 551.64, 1284.28 548.22, 1287.30 541.82 C 1290.32 535.43, 1291.68 532.02, 1294.54 525.84 C 1297.40 519.67, 1298.85 516.52, 1301.61 510.95 C 1304.37 505.39, 1305.87 502.64, 1308.34 498.01 C 1310.81 493.37, 1312.34 491.31, 1313.96 487.78 C 1315.58 484.24, 1316.41 482.77, 1316.43 480.35 C 1316.44 477.92, 1315.56 476.69, 1314.03 475.64 C 1312.50 474.58, 1311.15 474.36, 1308.78 475.06 C 1306.41 475.77, 1305.28 477.11, 1302.17 479.15 C 1299.06 481.19, 1297.15 482.82, 1293.23 485.26 C 1289.30 487.70, 1286.80 489.18, 1282.54 491.35 C 1278.28 493.52, 1275.83 494.57, 1271.93 496.11 C 1268.04 497.64, 1265.78 497.87, 1263.06 499.01 C 1260.34 500.16, 1259.29 501.02, 1258.31 501.84 C 1257.34 502.66, 1257.39 503.43, 1258.18 503.12 C 1258.97 502.82, 1259.98 502.30, 1262.28 500.32 C 1264.58 498.35, 1266.08 496.19, 1269.68 493.25 C 1273.27 490.32, 1276.11 488.45, 1280.26 485.65 C 1284.41 482.85, 1287.18 481.60, 1290.42 479.23 C 1293.67 476.87, 1295.52 475.79, 1296.49 473.82 C 1297.45 471.86, 1296.86 470.08, 1295.23 469.40 C 1293.60 468.72, 1291.79 469.09, 1288.33 470.41 C 1284.86 471.72, 1282.70 473.42, 1277.90 475.97 C 1273.10 478.52, 1269.96 480.19, 1264.31 483.14 C 1258.66 486.09, 1255.44 487.89, 1249.64 490.71 C 1243.83 493.53, 1240.65 495.08, 1235.27 497.22 C 1229.89 499.36, 1227.02 500.36, 1222.72 501.42 C 1218.42 502.48, 1216.56 502.37, 1213.79 502.52 C 1211.02 502.68, 1210.12 502.57, 1208.89 502.18 C 1207.65 501.79, 1207.67 501.61, 1207.62 500.57 C 1207.57 499.53, 1208.23 498.81, 1208.63 496.99 C 1209.04 495.16, 1209.59 493.85, 1209.64 491.46 C 1209.69 489.06, 1209.78 487.34, 1208.88 485.03 C 1207.97 482.72, 1207.29 481.19, 1205.12 479.91 C 1202.96 478.64, 1201.42 478.09, 1198.07 478.66 C 1194.71 479.23, 1192.74 480.70, 1188.33 482.78 C 1183.93 484.86, 1180.97 486.45, 1176.04 489.06 C 1171.10 491.66, 1168.15 493.46, 1163.68 495.81 C 1159.20 498.15, 1156.72 499.17, 1153.68 500.76 C 1150.64 502.36, 1149.54 502.90, 1148.46 503.78 C 1147.37 504.65, 1147.61 505.34, 1148.26 505.15 C 1148.90 504.95, 1150.11 504.67, 1151.69 502.81 C 1153.28 500.95, 1154.00 498.91, 1156.21 495.85 C 1158.42 492.78, 1160.36 490.77, 1162.74 487.49 C 1165.13 484.21, 1167.14 482.50, 1168.12 479.44 C 1169.10 476.37, 1168.78 474.16, 1167.64 472.16 C 1166.49 470.15, 1165.07 469.16, 1162.41 469.41 C 1159.75 469.67, 1157.98 471.14, 1154.32 473.45 C 1150.67 475.76, 1148.52 477.71, 1144.13 480.97 C 1139.74 484.23, 1137.12 486.38, 1132.36 489.74 C 1127.60 493.10, 1125.01 494.91, 1120.34 497.78 C 1115.67 500.65, 1113.21 502.10, 1109.01 504.09 C 1104.82 506.09, 1102.70 506.86, 1099.38 507.76 C 1096.05 508.66, 1094.53 508.39, 1092.40 508.58 C 1090.27 508.76, 1089.69 509.22, 1088.71 508.68 C 1087.74 508.15, 1087.61 507.62, 1087.51 505.91 C 1087.40 504.20, 1087.47 503.08, 1088.18 500.12 C 1088.89 497.16, 1089.46 494.93, 1091.07 491.12 C 1092.69 487.30, 1094.01 484.87, 1096.25 481.04 C 1098.49 477.22, 1100.47 475.31, 1102.28 472.00 C 1104.10 468.69, 1105.13 466.84, 1105.32 464.51 C 1105.52 462.18, 1104.70 461.03, 1103.26 460.34 C 1101.82 459.66, 1100.40 459.56, 1098.13 461.09 C 1095.86 462.61, 1094.80 464.84, 1091.92 467.97 C 1089.04 471.10, 1087.28 473.19, 1083.72 476.74 C 1080.16 480.29, 1078.09 482.36, 1074.11 485.72 C 1070.14 489.09, 1067.92 490.79, 1063.85 493.57 C 1059.77 496.35, 1057.61 497.64, 1053.74 499.64 C 1049.88 501.65, 1047.87 502.58, 1044.52 503.61 C 1041.17 504.63, 1039.68 504.67, 1036.99 504.78 C 1034.29 504.89, 1033.29 504.64, 1031.03 504.17 C 1028.77 503.69, 1027.78 503.27, 1025.69 502.42 C 1023.59 501.57, 1022.55 501.03, 1020.55 499.93 C 1018.54 498.84, 1017.69 498.20, 1015.65 496.95 C 1013.61 495.71, 1012.57 494.96, 1010.34 493.71 C 1008.10 492.45, 1006.86 491.88, 1004.48 490.67 C 1002.10 489.45, 1000.95 488.79, 998.44 487.62 C 995.94 486.45, 994.37 485.66, 991.95 484.80 C 989.54 483.94, 988.09 483.93, 986.38 483.31 C 984.68 482.69, 983.69 482.44, 983.41 481.71 C 983.14 480.97, 983.94 481.30, 985.00 479.63 C 986.07 477.97, 988.70 475.28, 988.73 473.36 C 988.77 471.45, 987.34 469.64, 985.20 470.07" style="stroke: black; fill: black;"/></svg>