<?xml version="1.0" standalone="no"?><!DOCTYPE svg PUBLIC "-//W3C//DTD SVG 1.1//EN" "http://www.w3.org/Graphics/SVG/1.1/DTD/svg11.dtd"><svg t="1718882349107" class="icon" viewBox="0 0 1024 1024" version="1.1" xmlns="http://www.w3.org/2000/svg" p-id="3729" xmlns:xlink="http://www.w3.org/1999/xlink" width="200" height="200"><path d="M853.333333 146.285714a73.142857 73.142857 0 0 1 73.142857 73.142857v463.238096a73.142857 73.142857 0 0 1-73.142857 73.142857H487.472762l-179.931429 139.946666A24.380952 24.380952 0 0 1 268.190476 876.495238V755.809524H170.666667a73.142857 73.142857 0 0 1-73.142857-73.142857V219.428571a73.142857 73.142857 0 0 1 73.142857-73.142857h682.666666z m0 73.142857H170.666667v463.238096h170.666666v94.134857L462.384762 682.666667H853.333333V219.428571z m-285.647238 85.333334L646.095238 596.041143h-79.872l-13.555809-56.807619h-81.700572l-13.555809 56.807619H377.904762L455.92381 304.761905h111.762285z m-55.320381 63.390476h-0.731428l-26.745905 112.469333h53.857524L512.365714 368.152381z" p-id="3730"></path></svg>