<?xml version="1.0" standalone="no"?><!DOCTYPE svg PUBLIC "-//W3C//DTD SVG 1.1//EN" "http://www.w3.org/Graphics/SVG/1.1/DTD/svg11.dtd"><svg t="1718879776374" class="icon" viewBox="0 0 1024 1024" version="1.1" xmlns="http://www.w3.org/2000/svg" p-id="15987" xmlns:xlink="http://www.w3.org/1999/xlink" width="200" height="200"><path d="M570.691 159.823c55.409 0 107.609 21.248 156.521 63.587 22.777 16.355 42.339 24.457 58.694 24.457 26.062 0 40.736-17.884 44.022-53.804-35.921-78.261-122.283-122.281-259.237-132.065-247.85 16.355-379.914 167.983-396.192 454.887 16.278 286.981 146.738 435.323 391.302 445.106 163.015-3.21 257.555-42.339 283.693-117.39-3.286-29.348-17.959-45.626-44.021-48.912-13.070 0-34.239 9.781-63.587 29.347-65.269 32.633-123.963 48.913-176.086 48.913-172.876-6.497-264.128-125.492-273.91-357.065 9.783-228.208 102.717-347.28 278.802-357.063z" fill="#2c2c2c" p-id="15988"></path></svg>