<?xml version="1.0" standalone="no"?><!DOCTYPE svg PUBLIC "-//W3C//DTD SVG 1.1//EN" "http://www.w3.org/Graphics/SVG/1.1/DTD/svg11.dtd"><svg t="1718879669510" class="icon" viewBox="0 0 1113 1024" version="1.1" xmlns="http://www.w3.org/2000/svg" p-id="8951" xmlns:xlink="http://www.w3.org/1999/xlink" width="217.3828125" height="200"><path d="M313.147 838.018l302.748-302.747v0.008a84.333 84.333 0 0 0 24.21-59.248c0-46.723-37.88-84.612-84.613-84.612-46.723 0-84.612 37.889-84.612 84.612a84.341 84.341 0 0 0 25.373 60.412l38.948 38.93-101.537 101.545-38.94-38.939-0.017 0.01c-41.633-41.354-67.417-98.634-67.417-161.949 0-126.036 102.175-228.21 228.22-228.21 126.035 0 228.21 102.174 228.21 228.21a227.467 227.467 0 0 1-66.253 160.776l-369.929 372.247c-25.478 25.478-78.097 15.577-115.111-8.825h-0.01C91.672 899.217 0 734.164 0 547.708 0 274.409 196.96 47.099 456.684 0l0.009 0.079-0.009 182.537C296.188 226.47 178.225 373.314 178.225 547.708c0 116.414 52.557 220.532 135.228 289.952l-0.306 0.358z" fill="#B72735" p-id="8952"></path><path d="M656.627 182.642V0.08l0.017-0.079c259.724 47.108 456.676 274.4 456.676 547.708 0 186.438-91.654 351.483-232.366 452.495l0.018 0.017c-37.015 24.403-89.633 34.303-115.103 8.825l-0.026 0.044-189.49-189.482 101.536-101.546 120.666 120.674 0.008 0.01c83.423-69.42 136.523-174.02 136.523-291.028 0-174.403-117.98-321.255-278.477-365.092" fill="#B72735" p-id="8953"></path></svg>