<?xml version="1.0" standalone="no"?><!DOCTYPE svg PUBLIC "-//W3C//DTD SVG 1.1//EN" "http://www.w3.org/Graphics/SVG/1.1/DTD/svg11.dtd"><svg t="1718879649303" class="icon" viewBox="0 0 1024 1024" version="1.1" xmlns="http://www.w3.org/2000/svg" p-id="7868" xmlns:xlink="http://www.w3.org/1999/xlink" width="200" height="200"><path d="M488.928 624.608c26.858667-4.608 55.189333-15.434667 77.109333-29.450667 13.642667-8.725333 34.314667-25.941333 40.373333-33.589333l4.650667-5.877333L450.133333 555.690667c-156.565333 0-161.248-0.106667-173.088-3.370667-6.698667-1.856-15.701333-5.162667-20.021333-7.349333-9.290667-4.682667-19.626667-15.573333-20.992-22.058667-3.050667-14.442667 3.082667-27.466667 10.261333-40.981333 19.818667-33.802667 63.776-74.997333 110.304-103.36 19.381333-11.808 56.874667-29.973333 78.304-37.909333 30.24-11.2 58.986667-18.528 97.056-24.757333 20.778667-3.402667 28.373333-3.573333 195.594667-4.458667 95.68-0.512 177.344-1.749333 177.344-1.749333l0.704-74.965333-206.773333 0.618667c-225.12 0.672-215.701333 0.309333-264.938667 10.421333-105.717333 21.696-233.312 92.309333-316.768 175.306667-36.565333 36.362667-80.288 95.488-93.045333 125.856-6.965333 16.554667-11.509333 35.274667-11.530667 47.424-0.010667 8.64 0.554667 10.186667 5.930667 16.138667 5.792 6.410667 16.405333 11.616 30.496 14.954667 3.264 0.768 100.266667 1.482667 215.573333 1.578667C445.568 627.136 476.192 626.805333 488.928 624.608z" p-id="7869"></path><path d="M1005.536 413.557333c-5.802667-6.421333-16.405333-11.626667-30.496-14.954667-3.264-0.778667-100.266667-1.482667-215.573333-1.578667-181.024-0.149333-211.637333 0.192-224.405333 2.389333-26.826667 4.618667-55.168 15.445333-77.088 29.461333-13.642667 8.725333-34.314667 25.941333-40.373333 33.6l-4.650667 5.856 160.928 0c156.544 0 161.248 0.106667 173.077333 3.381333 6.698667 1.856 15.712 5.162667 20.021333 7.338667 9.28 4.693333 19.616 15.573333 21.002667 22.069333 3.04 14.442667-3.082667 27.456-10.282667 40.981333-19.808 33.792-63.765333 74.997333-110.282667 103.36-19.402667 11.808-56.874667 29.973333-78.304 37.898667-30.250667 11.2-58.997333 18.538667-97.077333 24.768-20.757333 3.392-28.352 3.573333-195.573333 4.458667-95.68 0.512-177.354667 1.738667-177.354667 1.738667l-0.704 74.965333 206.762667-0.618667c225.130667-0.672 215.712-0.298667 264.96-10.410667 105.696-21.706667 233.312-92.309333 316.768-175.317333 36.565333-36.352 80.277333-95.488 93.045333-125.845333 6.954667-16.554667 11.509333-35.274667 11.52-47.434667C1011.477333 421.056 1010.901333 419.498667 1005.536 413.557333z" p-id="7870"></path></svg>