<?xml version="1.0" standalone="no"?><!DOCTYPE svg PUBLIC "-//W3C//DTD SVG 1.1//EN" "http://www.w3.org/Graphics/SVG/1.1/DTD/svg11.dtd"><svg t="1719820992972" class="icon" viewBox="0 0 1024 1024" version="1.1" xmlns="http://www.w3.org/2000/svg" p-id="4696" xmlns:xlink="http://www.w3.org/1999/xlink" width="200" height="200"><path d="M388.989952 468.6848c54.9888-62.5152 108.032-93.7984 159.232-93.7984h418.304c30.4128 0 85.0944 14.0288 40.96 104.96-44.2368 90.9312-156.672 236.6464-340.1216 301.312-107.4688 37.888-144.5376 37.632-200.704 37.888-37.4784 0.1536-157.44 0.1536-359.936 0V730.112h391.7824c112.7424 0 236.5952-113.4592 262.8096-149.9648 26.2144-36.5056 65.8432-111.5136-28.672-111.5136H389.041152z m246.0672 86.6304c-54.9888 62.5152-108.032 93.7984-159.232 93.7984h-418.304c-30.4128 0-85.0944-14.0288-40.96-104.96 44.2368-90.9312 156.672-236.6464 340.1216-301.312 107.4688-37.888 136.448-37.632 200.704-37.888 42.9056-0.1536 162.8672-0.1536 359.936 0V293.888h-391.7824c-112.7424 0-236.5952 113.4592-262.8096 149.9648-26.2144 36.5056-65.8432 111.5136 28.672 111.5136h343.6544z" fill="#FF611B" p-id="4697"></path></svg>