<?xml version="1.0" standalone="no"?><!DOCTYPE svg PUBLIC "-//W3C//DTD SVG 1.1//EN" "http://www.w3.org/Graphics/SVG/1.1/DTD/svg11.dtd"><svg t="1718879632020" class="icon" viewBox="0 0 1024 1024" version="1.1" xmlns="http://www.w3.org/2000/svg" p-id="6588" xmlns:xlink="http://www.w3.org/1999/xlink" width="200" height="200"><path d="M118.394 0.113c264.86-0.164 529.72-0.123 794.58-0.041 55.219 0.123 105.788 48.429 105.747 104.142 0.289 179.234 0.123 537.243 0.123 537.243H928.16l-0.043-184.296s-37.483 0.215-56.575-0.033c-83.61 0.082-167.22 0.123-250.83-0.04-10.245 0.081-34.24-0.55-34.24-0.55l-0.118 184.92H458.018l-1.296-183.65-356.305-0.543c0.059 58.65-0.045 184.192-0.045 184.192H5.108s0.132-49.78 0.132-67.844c-0.04-142.654 0-326.702-0.04-469.4C6.02 66.88 42.4 10.93 118.394 0.114z" fill="#DA251C" p-id="6589"></path><path d="M250.927 553.698c40.2-28.76 103.648 3.826 107.557 51.97 1.44 37.03 0.864 124.824 0.864 124.824h332.194s0.664-93.538 0.043-119.312c-1.214-39.838 45.022-77.317 86.965-65.258 29.13 7.16 48.016 36.456 49.869 65.258 0.716 57.906 0 119.312 0 119.312s10.821 0.672 18.68 0.506c57.193 0.125 114.47-0.122 171.704 0.084-0.081 62.79 0.247 125.578-0.081 188.369-0.536 53.45-47.073 99.451-99.781 103.277-15.677 1.975-31.56 0.989-47.277 1.11-238.691-0.04-477.343 0.042-716.034 0-15.387-0.08-30.818 0.865-46.123-1.069-41.114 1.125-105.86-51.587-104.28-101.408 0.428-36.58 0.572-28.488 0.013-51.45 0.495-47.073 0.864-139.419 0.864-139.419h208.984s0.61-87.663 0-124.825c-0.336-20.58 19.586-39.954 35.84-51.969z" fill="#DA251C" p-id="6590"></path></svg>