<?xml version="1.0" standalone="no"?><!DOCTYPE svg PUBLIC "-//W3C//DTD SVG 1.1//EN" "http://www.w3.org/Graphics/SVG/1.1/DTD/svg11.dtd"><svg t="1718881213746" class="icon" viewBox="0 0 1024 1024" version="1.1" xmlns="http://www.w3.org/2000/svg" p-id="37813" xmlns:xlink="http://www.w3.org/1999/xlink" width="200" height="200"><path d="M575 400.69H466.87c-40.33 0-73.14-32.8-73.14-73.14V219.42c0-40.34 32.81-73.14 73.14-73.14H575c40.33 0 73.14 32.8 73.14 73.14v108.13c0 40.33-32.81 73.14-73.14 73.14zM466.87 219.42v108.13h108.17L575 219.42H466.87zM831.79 914.28H723.67c-40.33 0-73.14-32.8-73.14-73.14V733.01c0-40.34 32.81-73.14 73.14-73.14h108.12c40.33 0 73.14 32.8 73.14 73.14v108.12c0.01 40.34-32.81 73.15-73.14 73.15zM723.67 733.01v108.12h108.17l-0.04-108.12H723.67zM318.2 914.28H210.08c-40.33 0-73.14-32.8-73.14-73.14V733.01c0-40.34 32.81-73.14 73.14-73.14H318.2c40.33 0 73.14 32.8 73.14 73.14v108.12c0.01 40.34-32.81 73.15-73.14 73.15zM210.08 733.01v108.12h108.17l-0.04-108.12H210.08z" fill="#4580f0" p-id="37814"></path><path d="M777.73 733.01c-20.2 0-36.57-16.38-36.57-36.57v-159.8H300.71v159.8c0 20.2-16.38 36.57-36.57 36.57-20.2 0-36.57-16.38-36.57-36.57V500.06c0-20.2 16.38-36.57 36.57-36.57h513.59c20.2 0 36.57 16.38 36.57 36.57v196.38c0 20.19-16.37 36.57-36.57 36.57z" fill="#4580f0" p-id="37815"></path><path d="M520.94 535.04c-20.2 0-36.57-16.38-36.57-36.57V364.11c0-20.2 16.38-36.57 36.57-36.57 20.2 0 36.57 16.38 36.57 36.57v134.36c0 20.2-16.38 36.57-36.57 36.57z" fill="#4580f0" p-id="37816"></path></svg>