<?xml version="1.0" encoding="UTF-8"?>
<svg width="40px" height="40px" viewBox="0 0 40 40" version="1.1" xmlns="http://www.w3.org/2000/svg" xmlns:xlink="http://www.w3.org/1999/xlink">
    <title>分组 3备份 2</title>
    <g id="页面-1" stroke="none" stroke-width="1" fill="none" fill-rule="evenodd">
        <g id="分组-3备份-2">
            <rect id="矩形" fill="#28B4E4" x="0" y="0" width="40" height="40" rx="3"></rect>
            <g id="stm-logo" transform="translate(3.000000, 13.000000)" fill="#FFFFFF" fill-rule="nonzero">
                <g id="编组-4" transform="translate(0.000000, 0.885570)">
                    <path d="M1.222368,4.22190285 L1.222368,4.39781546 C1.222368,4.95487209 1.37143727,5.3360161 2.02734205,5.3360161 C2.41492214,5.3360161 2.77268839,5.10146594 2.77268839,4.60304685 C2.77268839,4.04599023 2.47454985,3.84075884 1.6695758,3.57688991 C0.566463219,3.1957459 0.0596277073,2.75596436 0.0596277073,1.75912619 C0.0596277073,0.586375395 0.775160194,0 1.96771434,0 C3.07082692,0 3.87580097,0.469100316 3.87580097,1.61253234 L3.87580097,1.78844496 L2.68324683,1.78844496 C2.68324683,1.23138833 2.47454985,0.879563093 2.02734205,0.879563093 C1.46087883,0.879563093 1.31180956,1.23138833 1.31180956,1.58321357 C1.31180956,1.96435757 1.43106497,2.16958896 1.93790049,2.40413912 L2.8919438,2.8146019 C3.81617326,3.22506467 4.05468409,3.66484622 4.05468409,4.39781546 C4.05468409,5.65852256 3.2795239,6.24489796 1.93790049,6.24489796 C0.536649365,6.24489796 0,5.59988502 0,4.48577177 L0,4.25122162 L1.222368,4.25122162 L1.222368,4.22190285 Z" id="路径"></path>
                    <polygon id="路径" points="8.25843746 0.0586375395 8.25843746 1.05547571 6.91681404 1.05547571 6.91681404 6.09830411 5.69444604 6.09830411 5.69444604 1.05547571 4.35282263 1.05547571 4.35282263 0.0586375395"></polygon>
                    <polygon id="路径" points="8.82490067 0.0586375395 10.6733596 0.0586375395 11.5379614 4.30985915 11.5677752 4.30985915 12.4621908 0.0586375395 14.2808359 0.0586375395 14.2808359 6.09830411 13.1479095 6.09830411 13.1479095 1.29002587 13.1180956 1.29002587 12.014983 6.09830411 11.0609397 6.09830411 9.95782711 1.29002587 9.92801326 1.29002587 9.92801326 6.09830411 8.79508682 6.09830411 8.79508682 0.0586375395"></polygon>
                    <path d="M16.3379918,2.78528313 L16.6361303,2.78528313 C17.3516628,2.78528313 17.7988706,2.37482035 17.7988706,1.67116988 C17.7988706,0.967519402 17.4411044,0.557056625 16.7851996,0.557056625 C16.1889225,0.557056625 15.7119009,0.938200632 15.7119009,1.78844496 L15.1752515,1.78844496 C15.1752515,0.791606784 15.7119009,0.146593849 16.7851996,0.146593849 C17.7094291,0.146593849 18.33552,0.703650474 18.33552,1.61253234 C18.33552,2.25754527 18.0075676,2.8146019 17.3516628,2.96119575 L17.3516628,2.99051452 C18.0671953,3.07847082 18.5144031,3.66484622 18.5144031,4.39781546 C18.5144031,5.48260995 17.918126,6.21557919 16.7851996,6.21557919 C15.7417147,6.21557919 15.1156238,5.62920379 15.0858099,4.51509054 L15.6224593,4.51509054 C15.6224593,5.21874102 15.9802255,5.77579764 16.7851996,5.77579764 C17.4112905,5.77579764 17.9777537,5.39465364 17.9777537,4.39781546 C17.9777537,3.63552745 17.5007321,3.1957459 16.7553857,3.1957459 L16.3379918,3.1957459 L16.3379918,2.78528313 Z" id="路径"></path>
                    <path d="M19.2299356,1.99367634 C19.2597494,0.850244323 19.7963988,0.117275079 20.9591391,0.117275079 C21.793927,0.117275079 22.5392733,0.586375395 22.5392733,1.72980742 C22.5392733,2.46277666 22.3305764,2.93187698 21.5256023,3.57688991 L20.8696975,4.10462777 C20.2436066,4.63236562 19.8858404,5.01350963 19.7963988,5.62920379 L22.5690872,5.62920379 L22.5690872,6.09830411 L19.2299356,6.09830411 C19.2299356,5.10146594 19.6771434,4.456453 20.5119313,3.7821213 L21.1678361,3.25438344 C21.7641131,2.75596436 22.002624,2.34550158 22.002624,1.75912619 C22.002624,0.967519402 21.5554162,0.527737856 20.9293252,0.527737856 C20.2436066,0.527737856 19.8560265,0.996838172 19.8262127,1.99367634 L19.2299356,1.99367634 Z" id="路径"></path>
                </g>
                <path d="M23.662354,2.45376221 C24.7007133,1.67750641 27.7429238,2.95656427 28.4807053,3.61814592 C28.4260549,3.3976187 28.4351633,3.0094908 28.62644,2.82424794 C28.8814756,2.88599556 29.0909691,3.18591257 29.1729449,3.42408197 C29.528173,2.7713214 32.0512039,-1.18934741 33.1259968,0.35434311 C33.8728868,1.41287375 33.1988641,3.44172414 32.36089,4.1738745 C33.6816101,4.81781398 34.6379936,5.82341808 33.481225,7.14658138 C32.1149628,8.70791408 30.7304838,7.2877188 29.7558834,6.24683034 C29.9653769,6.78491675 30.165762,7.59645691 30.0564611,8.04633243 C29.8014255,7.74641541 29.5008478,6.87312764 29.4006552,6.31739905 C29.0909691,7.56999364 28.8996924,8.96372565 27.2966114,8.99901 C24.9830741,9.05193654 25.1014835,6.97015961 26.012325,5.77049155 C24.8555563,5.85870244 23.6259204,4.01509491 23.4984026,2.92127991 C23.507511,2.91245882 23.4619689,2.61254181 23.662354,2.45376221" id="路径" transform="translate(28.749201, 4.500000) scale(-1, 1) translate(-28.749201, -4.500000) "></path>
                <path d="M7,13.9197531 L7,9.37037037 L9.79861576,9.37037037 L9.79861576,9.97530864 L7.74458585,9.97530864 L7.74458585,11.3641975 L9.49051127,11.3641975 L9.49051127,11.962963 L7.74458585,11.962963 L7.74458585,13.9197531 L7,13.9197531 Z M10.568877,13.9197531 L10.568877,10.5246914 L11.307044,10.5246914 L11.307044,13.9197531 L10.568877,13.9197531 Z M10.9347511,9.88888889 C10.6651596,9.88888889 10.4790132,9.72222222 10.4790132,9.46296296 C10.4790132,9.20987654 10.6651596,9.04320988 10.9347511,9.04320988 C11.2043425,9.04320988 11.3969078,9.20987654 11.3969078,9.46296296 C11.3969078,9.72222222 11.2043425,9.88888889 10.9347511,9.88888889 Z M12.4110851,13.9197531 L12.4110851,10.5246914 L13.0144564,10.5246914 L13.0722259,10.9938272 L13.0914825,10.9938272 C13.4188435,10.691358 13.7782987,10.4382716 14.259712,10.4382716 C15.0107167,10.4382716 15.3444965,10.9197531 15.3444965,11.7839506 L15.3444965,13.9197531 L14.6063295,13.9197531 L14.6063295,11.8703704 C14.6063295,11.2839506 14.4266019,11.0493827 14.0093771,11.0493827 C13.6820161,11.0493827 13.4573566,11.2098765 13.1492521,11.5123457 L13.1492521,13.9197531 L12.4110851,13.9197531 Z M17.6360237,14 C16.7502233,14 16.1789462,13.3518519 16.1789462,12.2222222 C16.1789462,11.1234568 16.9042755,10.4382716 17.6937933,10.4382716 C18.0981804,10.4382716 18.3549341,10.5864198 18.6437821,10.8209877 L18.6116879,10.2592593 L18.6116879,9 L19.3498549,9 L19.3498549,13.9197531 L18.7464836,13.9197531 L18.688714,13.537037 L18.6630386,13.537037 C18.399866,13.7962963 18.033992,14 17.6360237,14 Z M17.8093324,13.4135802 C18.1045992,13.4135802 18.3549341,13.2839506 18.6116879,13 L18.6116879,11.3395062 C18.3485153,11.1111111 18.0981804,11.0308642 17.8350078,11.0308642 C17.3407569,11.0308642 16.9427886,11.4814815 16.9427886,12.2160494 C16.9427886,12.9876543 17.2573119,13.4135802 17.8093324,13.4135802 Z M21.93023,14 C20.9738223,14 20.2099799,13.345679 20.2099799,12.2222222 C20.2099799,11.1234568 20.9994977,10.4382716 21.8211096,10.4382716 C22.7582608,10.4382716 23.2653494,11.0864198 23.2653494,12.0432099 C23.2653494,12.1851852 23.2460929,12.3209877 23.2268363,12.4074074 L20.9353092,12.4074074 C20.9930788,13.0555556 21.4167225,13.4444444 22.0265126,13.4444444 C22.3410359,13.4444444 22.6106274,13.3518519 22.8673811,13.191358 L23.1241349,13.6419753 C22.7967738,13.8518519 22.3923867,14 21.93023,14 Z M20.9288904,11.9135802 L22.6234651,11.9135802 C22.6234651,11.3333333 22.3474548,10.9938272 21.8339473,10.9938272 C21.3910471,10.9938272 20.9994977,11.3209877 20.9288904,11.9135802 Z M24.0869614,13.9197531 L24.0869614,10.5246914 L24.6903327,10.5246914 L24.7481023,11.1358025 L24.7673588,11.1358025 C25.0176937,10.6975309 25.3899866,10.4382716 25.7686984,10.4382716 C25.9420071,10.4382716 26.0575463,10.462963 26.1666667,10.5123457 L26.031871,11.1296296 C25.9099129,11.0925926 25.8200491,11.0740741 25.6788346,11.0740741 C25.3899866,11.0740741 25.0433691,11.2654321 24.8251284,11.8024691 L24.8251284,13.9197531 L24.0869614,13.9197531 Z" id="Finder"></path>
            </g>
        </g>
    </g>
</svg>